<svg width="32" height="23" viewBox="0 0 32 23" fill="none" xmlns="http://www.w3.org/2000/svg">
<path d="M14.8881 20.2978C22.2344 20.2978 28.1973 14.3349 28.1973 6.98856H1.57886C1.57886 14.3349 7.54177 20.2978 14.8881 20.2978Z" fill="#13110C"/>
<path d="M4.56031 0C5.39512 0 5.94371 0.214665 6.5877 0.715549C6.89778 0.954066 7.06474 1.16873 7.06474 1.50265C7.06474 1.81273 6.80236 2.14665 6.39689 2.14665C6.18222 2.14665 6.03912 2.05124 5.89601 1.93198C5.53823 1.59806 5.18045 1.35954 4.60801 1.35954C3.6778 1.35954 2.9384 2.14665 2.9384 3.05301C2.9384 4.00708 3.6778 4.77033 4.67957 4.77033C5.34742 4.77033 5.70519 4.3887 5.94371 4.17404C6.08682 4.05478 6.25378 3.95937 6.42074 3.95937C6.87392 3.95937 7.11244 4.2933 7.11244 4.60337C7.11244 5.27121 5.87215 6.12987 4.67957 6.12987C2.9861 6.12987 1.57886 4.74648 1.57886 3.05301C1.57886 1.35954 2.9861 0 4.56031 0Z" fill="#E30613"/>
<path d="M9.37822 2.38515H11.5964V0.787087C11.5964 0.286202 11.9065 0.0238342 12.2881 0.0238342C12.6697 0.0238342 12.956 0.286202 12.956 0.787087V5.3189C12.956 5.81979 12.6459 6.08215 12.2881 6.08215C11.9303 6.08215 11.5964 5.81979 11.5964 5.3189V3.62543H9.37822V5.3189C9.37822 5.81979 9.06815 6.08215 8.71037 6.08215C8.3526 6.08215 8.01868 5.81979 8.01868 5.3189V0.787087C8.01868 0.286202 8.32875 0.0238342 8.71037 0.0238342C9.06815 0.0238342 9.37822 0.286202 9.37822 0.787087V2.38515Z" fill="#E30613"/>
<path d="M14.2439 0.787087C14.2439 0.286202 14.554 0.0238342 14.9356 0.0238342C15.2934 0.0238342 15.6034 0.286202 15.6034 0.787087V5.3189C15.6034 5.81979 15.2934 6.08215 14.9356 6.08215C14.5778 6.08215 14.2439 5.81979 14.2439 5.3189V0.787087Z" fill="#E30613"/>
<path d="M20.5885 3.57773V0.787087C20.5885 0.286202 20.8986 0.0238342 21.2564 0.0238342C21.638 0.0238342 21.9481 0.286202 21.9481 0.787087V5.22349C21.9481 5.34275 21.9481 5.50971 21.9004 5.62897C21.8288 5.91519 21.5188 6.08215 21.2325 6.08215C20.8986 6.08215 20.7555 5.91519 20.5647 5.67668L18.1557 2.57596V5.3189C18.1557 5.81979 17.8456 6.08215 17.4878 6.08215C17.1301 6.08215 16.7961 5.81979 16.7961 5.3189V0.739384C16.7961 0.333906 17.0824 0.0238342 17.464 0.0238342C17.7264 0.0238342 17.8933 0.166944 18.0841 0.40546L20.5885 3.57773Z" fill="#E30613"/>
<path d="M26.0983 3.84011L25.3827 2.12279L24.6672 3.84011H26.0983ZM26.5515 5.00884H24.1663L23.9755 5.43817C23.8085 5.8198 23.6177 6.05832 23.3315 6.05832C22.8068 6.05832 22.5682 5.70054 22.5682 5.46202C22.5682 5.22351 22.6637 5.03269 22.7114 4.88958L24.691 0.477029C24.8103 0.190809 25.0488 0.047699 25.3589 0.047699C25.6451 0.047699 25.8836 0.214661 26.0029 0.477029L28.0303 4.86573C28.1018 5.00884 28.1734 5.19966 28.1734 5.43817C28.1734 5.70054 27.9349 6.08217 27.4101 6.08217C27.1239 6.08217 26.9331 5.8675 26.7423 5.46202L26.5515 5.00884Z" fill="#E30613"/>
<path d="M10.4754 11.4249L11.2864 8.61045C11.4295 8.15727 11.5965 7.91875 12.0019 7.91875C12.3836 7.91875 12.6936 8.20497 12.6936 8.56274C12.6936 8.72971 12.6221 8.87282 12.5982 9.01593L11.191 13.4523C11.0717 13.8101 10.8571 13.9771 10.547 13.9771C10.2131 13.9771 9.99839 13.8101 9.87914 13.5L8.75811 10.3516L7.68479 13.5C7.58938 13.7863 7.32701 13.9771 7.01694 13.9771C6.65916 13.9771 6.49221 13.7624 6.37295 13.4523L4.94185 9.03978C4.89414 8.92052 4.84644 8.75356 4.84644 8.58659C4.84644 8.22882 5.15651 7.91875 5.51429 7.91875C5.91976 7.91875 6.08673 8.18112 6.22984 8.6343L7.0885 11.4249L8.09026 8.39578C8.18567 8.10956 8.44804 7.8949 8.78196 7.8949C9.09203 7.8949 9.3544 8.08571 9.42596 8.32423L10.4754 11.4249Z" fill="white"/>
<path d="M14.3632 10.9479C14.3632 11.902 15.1265 12.6652 16.0805 12.6652C17.0107 12.6652 17.774 11.9258 17.774 10.9956C17.774 10.0177 17.0346 9.25444 16.1044 9.25444C15.1503 9.25444 14.3632 10.0177 14.3632 10.9479ZM19.1335 10.9956C19.1335 12.6414 17.7501 14.0009 16.0567 14.0009C14.3394 14.0009 13.0037 12.6414 13.0037 10.9002C13.0037 9.25444 14.3871 7.8949 16.0805 7.8949C17.7501 7.8949 19.1335 9.30214 19.1335 10.9956Z" fill="white"/>
<path d="M22.592 10.8764L24.5479 12.6652C24.7625 12.8561 24.9295 13.023 24.9295 13.3092C24.9295 13.6909 24.6194 13.9771 24.2378 13.9771C23.9754 13.9771 23.8085 13.834 23.6176 13.6432L21.3517 11.4965V13.19C21.3517 13.6909 21.0417 13.9532 20.6839 13.9532C20.3261 13.9532 19.9922 13.6909 19.9922 13.19V8.65817C19.9922 8.15728 20.3023 7.87106 20.6839 7.87106C21.0417 7.87106 21.3517 8.15728 21.3517 8.65817V10.2324L23.3314 8.22884C23.5222 8.03802 23.6892 7.87106 23.9754 7.87106C24.357 7.87106 24.6433 8.15728 24.6433 8.53891C24.6433 8.82513 24.4763 8.96824 24.2855 9.1829L22.592 10.8764Z" fill="white"/>
<path d="M27.5293 14.9073H1.91261C1.7695 14.9073 1.62639 15.0027 1.60254 15.1697C1.60254 15.1935 1.60254 15.1935 1.60254 15.2174C1.60254 15.2412 1.60254 15.2412 1.60254 15.2651C1.62639 15.4082 1.74564 15.5274 1.88875 15.5274L27.5054 16.2907C27.8871 16.2907 28.1971 16.0045 28.1971 15.6228C28.1971 15.2174 27.9109 14.9073 27.5293 14.9073Z" fill="#00A84F"/>
<path d="M24.4763 21.5142L0.410001 12.7368C0.266891 12.6891 0.12378 12.7368 0.0283731 12.8799C0.0283731 12.8799 0.0283717 12.9037 0.00452003 12.9276C0.00452003 12.9514 0.00452003 12.9514 0.00452003 12.9753C-0.0193316 13.1184 0.0522204 13.2615 0.19533 13.3331L23.9993 22.8022C24.357 22.9453 24.7387 22.7545 24.8818 22.3967C25.001 22.0389 24.8341 21.6573 24.4763 21.5142Z" fill="#00A84F"/>
<path d="M29.9622 8.51507C30.153 8.51507 30.3676 8.51507 30.3676 8.27656C30.3676 8.08574 30.2245 8.06189 30.0576 8.06189H29.7475V8.51507H29.9622ZM29.7475 9.23062H29.5805V7.91878H30.0814C30.3676 7.91878 30.5108 8.03804 30.5108 8.27656C30.5108 8.51507 30.3676 8.61048 30.1768 8.63433L30.5585 9.23062H30.3676L30.0099 8.63433H29.7236V9.23062H29.7475ZM29.032 8.58663C29.032 9.13522 29.4374 9.56455 29.986 9.56455C30.5346 9.56455 30.9401 9.13522 30.9401 8.58663C30.9401 8.03804 30.5346 7.60871 29.986 7.60871C29.4374 7.60871 29.032 8.03804 29.032 8.58663ZM31.1309 8.58663C31.1309 9.23062 30.63 9.73151 30.0099 9.73151C29.3659 9.73151 28.865 9.23062 28.865 8.58663C28.865 7.94263 29.3659 7.4656 30.0099 7.4656C30.63 7.44175 31.1309 7.94263 31.1309 8.58663Z" fill="#13110C"/>
</svg>
