<svg width="49" height="23" viewBox="0 0 49 23" fill="none" xmlns="http://www.w3.org/2000/svg">
<g clip-path="url(#clip0)">
<path d="M47.2966 5.05435C47.0937 5.0554 46.893 5.09726 46.706 5.17752C46.5191 5.25778 46.3497 5.37485 46.2075 5.52197C45.8799 5.21986 45.4529 5.05308 45.0105 5.05435C44.7168 5.05546 44.4278 5.12942 44.1686 5.26982C43.9094 5.41021 43.6878 5.61279 43.5231 5.85997C43.518 5.86913 43.5121 5.87781 43.5055 5.88589L43.4073 5.76525C43.0365 5.29165 42.5734 5.05435 42.0337 5.05435C41.7815 5.0494 41.5309 5.0976 41.2979 5.19593C41.0649 5.29426 40.8544 5.44058 40.6798 5.62566C40.5121 5.44679 40.3108 5.30405 40.0877 5.20594C39.8646 5.10782 39.6243 5.05635 39.3813 5.05458C39.1382 5.05281 38.8973 5.10079 38.6728 5.19565C38.4484 5.2905 38.245 5.4303 38.0749 5.60672C37.9071 5.43348 37.7075 5.29553 37.4873 5.20076C37.2671 5.10598 37.0307 5.05623 36.7915 5.05435C36.5452 5.05393 36.3014 5.10607 36.0762 5.2074C35.8509 5.30874 35.649 5.457 35.4837 5.64261C35.3131 5.45787 35.1072 5.31042 34.8786 5.20927C34.65 5.10813 34.4035 5.05541 34.1542 5.05435C33.9067 5.04966 33.661 5.09873 33.4336 5.19829C33.2062 5.29785 33.0023 5.44559 32.8356 5.63164C32.6514 5.43144 32.4252 5.27606 32.1737 5.17709C31.9223 5.07812 31.652 5.03812 31.3832 5.06007C31.1144 5.08202 30.854 5.16535 30.6213 5.30385C30.3886 5.44235 30.1897 5.63245 30.0393 5.85997C30.0323 5.86754 30.0267 5.87631 30.0227 5.88589L29.9245 5.76525C29.5527 5.29165 29.0876 5.05435 28.551 5.05435C28.3039 5.04916 28.0584 5.0949 27.8292 5.18881C27.6001 5.28272 27.392 5.42285 27.2176 5.60073C26.8707 5.25496 26.4055 5.05914 25.9195 5.05435C25.6573 5.05494 25.3984 5.114 25.161 5.22736C24.9237 5.34071 24.7137 5.50561 24.5459 5.71041C24.5234 5.68648 24.5018 5.65856 24.4763 5.63164C24.2984 5.43946 24.0819 5.28853 23.8414 5.18913C23.6009 5.08973 23.3422 5.0442 23.0828 5.05565C22.8235 5.0671 22.5696 5.13526 22.3385 5.25548C22.1074 5.3757 21.9046 5.54516 21.7438 5.75229L21.7262 5.77622C21.6323 5.89824 21.5548 6.03234 21.4956 6.17504C21.4465 6.12518 21.3975 6.07533 21.3465 6.02747C20.6498 5.40132 19.81 5.09523 18.7719 5.09523H17.677C16.7577 5.09523 16.0866 5.5439 15.8305 6.33058C15.7934 6.43385 15.7686 6.54132 15.7569 6.65063C15.5423 6.17523 15.1982 5.7723 14.7652 5.48956C14.3322 5.20683 13.8285 5.05614 13.3139 5.05535H7.01203C7.26432 4.91588 7.50868 4.76209 7.74396 4.59471C8.14234 4.29115 8.44348 3.87464 8.60951 3.39758C8.77553 2.92052 8.79902 2.40422 8.67702 1.91364C8.56159 1.42652 8.30521 0.985708 7.94094 0.648052C7.57667 0.310395 7.12122 0.0913756 6.63331 0.0192362C6.5264 0.00370662 6.4185 -0.00362592 6.31051 -0.00269908C5.61271 0.00369068 4.93363 0.227459 4.36492 0.638406C4.05662 0.868556 3.7978 1.16023 3.6043 1.49557C3.41079 1.83091 3.28668 2.20286 3.23955 2.58864C3.21505 2.75056 3.20716 2.91462 3.216 3.07819C3.08623 3.05668 2.95503 3.04535 2.82355 3.04429C2.25446 3.05435 1.70183 3.24004 1.23901 3.57672C0.341269 4.2258 0.0773427 4.99752 0.0125875 5.52895C-0.0413922 5.98324 0.030297 6.44383 0.219608 6.85901C0.175916 6.93436 0.142887 7.01559 0.121494 7.1003C0.0640269 7.32328 0.0346847 7.55278 0.0341727 7.78328V20.2644C0.0341725 20.624 0.103933 20.9802 0.239464 21.3124C0.374995 21.6447 0.573639 21.9465 0.82404 22.2007C1.07444 22.4549 1.37169 22.6564 1.69878 22.7938C2.02588 22.9312 2.37641 23.0017 2.73034 23.0013H13.3139C13.8652 23 14.4029 22.8267 14.8542 22.5048C15.3055 22.183 15.6487 21.7281 15.8374 21.2016C15.8649 21.2984 15.8976 21.3936 15.9355 21.4868C16.1864 22.0817 16.6561 22.5536 17.2443 22.8019C17.5485 22.9341 17.876 23.0019 18.2068 23.0013C18.5055 23.0014 18.8017 22.945 19.08 22.8348C19.3548 22.7278 19.6092 22.573 19.8316 22.3771L19.8826 22.3283C19.9283 22.3982 19.9788 22.4649 20.0337 22.5277C20.1633 22.66 20.3173 22.7651 20.487 22.8368C20.6594 22.9127 20.8456 22.9511 21.0335 22.9494H22.9222C23.292 22.95 23.6469 22.8016 23.9092 22.5367C23.9186 22.5269 23.9274 22.5165 23.9357 22.5058C24.023 22.5997 24.122 22.6818 24.23 22.75C24.4428 22.8784 24.6853 22.9472 24.9328 22.9494C25.1802 22.9517 25.4239 22.8874 25.6389 22.763C26.1403 22.4918 26.4395 21.8796 26.5082 21.747C26.5082 21.763 27.038 22.6314 27.4776 22.8158C27.4952 22.8218 27.509 22.8288 27.5227 22.8348C27.6293 22.8711 27.739 22.8968 27.8504 22.9116C27.9657 22.925 28.0817 22.931 28.1977 22.9295H28.9473C29.0184 22.93 29.0895 22.9264 29.1602 22.9185C29.2471 22.9152 29.3334 22.9018 29.4173 22.8787C29.5135 22.8543 29.6067 22.8189 29.695 22.773C29.7818 22.7263 29.8634 22.6702 29.9383 22.6055C30.095 22.4717 30.219 22.3028 30.3003 22.1119C30.3302 22.0482 30.3529 21.9813 30.368 21.9125C30.6172 22.5018 31.1912 22.9813 32.0556 22.9813H33.3997C33.655 22.979 33.9032 22.8965 34.1105 22.7451C34.3178 22.5937 34.4739 22.3809 34.5575 22.1358C34.6201 22.2683 34.7018 22.3906 34.7998 22.4988C34.9301 22.6416 35.0884 22.7551 35.2645 22.832C35.4406 22.909 35.6305 22.9476 35.8222 22.9455H38.3457C38.5316 22.9464 38.7157 22.908 38.8863 22.8328C39.0461 22.766 39.1919 22.6689 39.316 22.5466C39.5779 22.803 39.9276 22.946 40.2913 22.9455H42.1848C42.5545 22.9455 42.9093 22.7971 43.1719 22.5327C43.2068 22.4972 43.2396 22.4596 43.27 22.42C43.345 22.4934 43.426 22.5602 43.5123 22.6194C43.7018 22.7446 43.9085 22.8406 44.1255 22.9046C44.3493 22.9666 44.5804 22.9975 44.8123 22.9963C45.0794 22.9993 45.3449 22.9555 45.5972 22.8667C45.855 22.7728 46.0894 22.6228 46.284 22.427C46.2875 22.4222 46.2918 22.4182 46.2968 22.415C46.4681 22.2342 46.6031 22.0212 46.6942 21.7879C46.784 21.5546 46.8305 21.3065 46.8315 21.056V19.6362C46.8313 19.3711 46.7578 19.1113 46.6196 18.8865C46.5215 18.718 46.2654 18.5365 46.1114 18.4168C46.3024 18.2991 46.479 18.1585 46.6373 17.9981C46.8194 17.8097 46.9731 17.595 47.0935 17.361C47.2993 16.9548 47.407 16.5047 47.4074 16.0478C47.4125 15.4445 47.2183 14.8568 46.856 14.3788C47.0785 14.0783 47.1978 13.7119 47.1955 13.3359C47.1957 13.141 47.1649 12.9474 47.1043 12.7626C46.9717 12.3863 46.7328 12.0582 46.4175 11.8194C46.4275 11.8108 46.4361 11.8007 46.443 11.7894C46.7599 11.3647 46.8237 10.9579 46.8237 10.4015V9.35763C46.8727 9.37258 46.9218 9.38156 46.9571 9.39053C47.0473 9.4082 47.139 9.41755 47.2308 9.41845C47.5487 9.41845 48.3346 9.29381 48.7771 8.12228C48.9157 7.74894 48.9916 7.35461 49.0018 6.95573C48.9998 5.90583 48.2355 5.05435 47.2966 5.05435Z" fill="white"/>
<path d="M47.3899 11.7213C47.0739 11.7219 46.7709 11.8495 46.5472 12.0763C46.3234 12.3031 46.1971 12.6106 46.1958 12.9318C46.1954 13.0033 46.2013 13.0747 46.2135 13.1451C46.2612 13.42 46.4007 13.6697 46.6086 13.8521C46.8164 14.0345 47.0798 14.1384 47.3543 14.1464C47.6289 14.1544 47.8977 14.0659 48.1154 13.8958C48.3332 13.7257 48.4865 13.4846 48.5496 13.2129C48.5632 13.168 48.5704 13.1213 48.5712 13.0743C48.5778 13.0271 48.5811 12.9795 48.581 12.9318C48.5799 12.6111 48.4541 12.3038 48.231 12.077C48.0078 11.8503 47.7055 11.7224 47.3899 11.7213Z" fill="white"/>
<path fill-rule="evenodd" clip-rule="evenodd" d="M47.5017 12.9657C47.643 12.9657 47.7529 12.9029 47.7529 12.7493C47.7538 12.7149 47.7458 12.6808 47.7298 12.6503C47.7138 12.6199 47.6903 12.5943 47.6617 12.5758C47.6031 12.5447 47.5371 12.5313 47.4713 12.5369H47.1299V13.3346H47.228V12.9667H47.4036L47.4605 13.0594L47.6283 13.3346H47.7441L47.5626 13.0584L47.5017 12.9657ZM47.3712 12.8939H47.2241V12.6077H47.4478C47.5459 12.6077 47.6528 12.6227 47.6528 12.7453C47.6528 12.9088 47.4801 12.8939 47.3712 12.8939Z" fill="#DF1683"/>
<path fill-rule="evenodd" clip-rule="evenodd" d="M48.0787 13.0584C48.0859 13.0176 48.0895 12.9762 48.0895 12.9348C48.0827 12.7502 48.0057 12.5755 47.8748 12.4473C47.7439 12.3192 47.5692 12.2476 47.3875 12.2476C47.2057 12.2476 47.031 12.3192 46.9001 12.4473C46.7692 12.5755 46.6922 12.7502 46.6854 12.9348C46.6851 12.9763 46.6893 13.0178 46.6982 13.0584C46.7264 13.2237 46.8111 13.3735 46.9374 13.4815C47.0637 13.5895 47.2234 13.6487 47.3884 13.6487C47.5535 13.6487 47.7132 13.5895 47.8395 13.4815C47.9658 13.3735 48.0505 13.2237 48.0787 13.0584H47.9923C47.9646 13.2003 47.8893 13.3281 47.7793 13.4199C47.6693 13.5117 47.5313 13.5618 47.3889 13.5618C47.2466 13.5618 47.1086 13.5117 46.9986 13.4199C46.8885 13.3281 46.8132 13.2003 46.7855 13.0584C46.7788 13.0166 46.7761 12.9742 46.7777 12.9318C46.784 12.7699 46.8518 12.6168 46.9667 12.5046C47.0817 12.3923 47.2349 12.3296 47.3943 12.3296C47.5537 12.3296 47.707 12.3923 47.8219 12.5046C47.9369 12.6168 48.0046 12.7699 48.011 12.9318C48.0112 12.9735 48.0062 13.015 47.9962 13.0554L48.0787 13.0584Z" fill="#DF1683"/>
<path d="M5.39825 6.1219C5.37806 6.19067 5.38511 6.26473 5.41788 6.32829C5.43341 6.36015 5.45545 6.38827 5.48252 6.41079C5.50959 6.43331 5.54107 6.44972 5.57486 6.45891C5.60828 6.47017 5.64358 6.47452 5.67867 6.4717C5.71377 6.46889 5.74796 6.45897 5.77923 6.44252C5.8105 6.42608 5.83821 6.40344 5.86074 6.37595C5.88327 6.34845 5.90016 6.31666 5.91041 6.28243C6.21947 5.25945 5.68475 4.62333 5.25501 4.11185C4.84784 3.62429 4.60157 3.30423 4.67221 2.79973C4.69344 2.60793 4.75357 2.42269 4.84882 2.25571C4.94407 2.08873 5.07235 1.94363 5.22558 1.82959C5.56952 1.58424 5.983 1.45994 6.40294 1.47564C6.60992 1.50138 6.80411 1.59112 6.95924 1.73271C7.11438 1.87431 7.22295 2.06092 7.27027 2.2673C7.30225 2.40102 7.3099 2.53957 7.29283 2.67609C7.27618 2.81742 7.23226 2.95402 7.16356 3.07806C7.09487 3.2021 7.00277 3.31115 6.89253 3.39895C6.89253 3.39895 6.89253 3.39895 6.88566 3.40394C6.62075 3.54452 6.40588 3.54452 6.26166 3.40394C6.20297 3.34903 6.16213 3.27725 6.1446 3.19816C6.12708 3.11907 6.13368 3.03643 6.16354 2.96125C6.21554 2.86154 6.34996 2.81967 6.5403 2.85656C6.60914 2.8657 6.6789 2.84904 6.73653 2.8097C6.76509 2.78921 6.78935 2.76313 6.80789 2.733C6.82642 2.70287 6.83885 2.66929 6.84445 2.63421C6.85093 2.59889 6.85041 2.56261 6.84293 2.52749C6.83544 2.49238 6.82114 2.45913 6.80086 2.4297C6.78058 2.40027 6.75472 2.37524 6.72481 2.35609C6.69489 2.33694 6.66152 2.32404 6.62664 2.31815C6.19886 2.24337 5.84173 2.38894 5.6818 2.71697C5.60047 2.89495 5.57566 3.09424 5.61082 3.2872C5.64599 3.48015 5.73937 3.65721 5.87803 3.79379C6.19788 4.10985 6.67373 4.14076 7.15351 3.87654L7.18393 3.85261C7.43714 3.65681 7.628 3.38957 7.73269 3.08424C7.83738 2.7789 7.85126 2.44899 7.77261 2.13569C7.69776 1.82757 7.53417 1.54914 7.30277 1.336C7.07136 1.12287 6.78266 0.984722 6.47358 0.939225C5.91012 0.898055 5.35024 1.05855 4.89101 1.39288C4.68062 1.5505 4.50413 1.75013 4.37236 1.97953C4.24059 2.20893 4.15633 2.46327 4.12474 2.72694C4.01779 3.49666 4.44851 4.01214 4.83018 4.46779C5.26188 4.95535 5.62097 5.38408 5.39825 6.1219Z" fill="#663C20"/>
<path d="M3.28188 7.04119L3.29267 7.03322C3.73418 6.69721 3.72045 6.00526 3.43494 5.59547C3.14943 5.18568 2.69025 5.12586 2.25757 5.42098C2.19863 5.46203 2.15797 5.525 2.14438 5.59628C2.13079 5.66757 2.14537 5.74142 2.18497 5.80186C2.20366 5.83209 2.22846 5.85794 2.25772 5.87771C2.28698 5.89747 2.32004 5.9107 2.3547 5.91652C2.38844 5.92328 2.42317 5.92315 2.45686 5.91614C2.49055 5.90912 2.52253 5.89535 2.55093 5.87564C2.80406 5.70315 2.92572 5.81382 2.99244 5.91353C3.07706 6.03965 3.11368 6.19273 3.09546 6.34425C3.0926 6.39161 3.08055 6.43792 3.06 6.48053C3.03946 6.52314 3.01083 6.5612 2.97576 6.59252C2.38708 6.97738 1.87198 6.76501 1.61787 6.39311C1.32843 5.96837 1.35983 5.30533 2.07606 4.78586C2.7864 4.28734 3.30052 4.59941 3.54777 4.82774C4.00988 5.25448 4.18551 5.99927 3.93433 6.45692C3.90711 6.50402 3.89447 6.55835 3.89804 6.61285C3.9016 6.66735 3.92123 6.7195 3.95435 6.76252C3.98747 6.80553 4.03256 6.83743 4.08376 6.85405C4.13496 6.87068 4.1899 6.87127 4.24143 6.85574C4.27566 6.84642 4.30763 6.83 4.33532 6.80753C4.36301 6.78505 4.38583 6.75699 4.40234 6.72513C4.78008 6.04314 4.5603 5.03014 3.91177 4.43191C3.30346 3.86957 2.50285 3.83368 1.77191 4.34716C1.23228 4.74099 0.978166 5.20662 0.925185 5.65728C0.881945 6.02733 0.971471 6.4008 1.17734 6.70917C1.58353 7.29544 2.43516 7.60752 3.28188 7.04119Z" fill="#663C20"/>
<path d="M28.4511 18.8243C28.5012 18.8273 28.5509 18.8132 28.5924 18.7845C28.6437 18.7416 28.686 18.6887 28.717 18.6289C28.759 18.5664 28.7945 18.4995 28.8229 18.4295C28.8417 18.3909 28.8523 18.3488 28.8543 18.3059C28.8547 18.273 28.8481 18.2405 28.8348 18.2106C28.8216 18.1806 28.8022 18.1539 28.7778 18.1324C28.7536 18.1088 28.725 18.0903 28.6936 18.0781C28.6623 18.066 28.6288 18.0604 28.5953 18.0616C28.5463 18.0607 28.4982 18.0746 28.457 18.1015C28.4088 18.1438 28.3681 18.194 28.3363 18.25C28.2941 18.3135 28.2567 18.3802 28.2244 18.4495C28.2023 18.4859 28.1895 18.5274 28.1871 18.5701C28.1869 18.6036 28.1937 18.6367 28.207 18.6673C28.2204 18.6979 28.24 18.7253 28.2647 18.7476C28.3149 18.7964 28.3816 18.8238 28.4511 18.8243Z" fill="#663C20"/>
<path d="M19.5433 21.1246C19.5433 21.304 19.4373 21.4875 19.2264 21.6779C19.0839 21.8023 18.9213 21.9005 18.7456 21.9681C18.5731 22.0382 18.3889 22.0741 18.2031 22.0738C17.9954 22.0743 17.7898 22.0319 17.5987 21.9491C17.4159 21.8706 17.2495 21.7576 17.1081 21.6161C16.965 21.4749 16.8521 21.3052 16.7765 21.1176C16.6957 20.9254 16.6549 20.7184 16.6568 20.5094C16.6554 20.2991 16.6965 20.0907 16.7775 19.8972C16.937 19.5217 17.2329 19.2231 17.6036 19.0637C17.7951 18.9819 18.0012 18.9412 18.209 18.944C18.3853 18.9438 18.5605 18.9738 18.727 19.0328C18.8955 19.0942 19.0522 19.1849 19.1901 19.301C19.4262 19.4931 19.5446 19.6891 19.5453 19.8892C19.5456 19.9553 19.5325 20.0208 19.507 20.0817C19.4839 20.1389 19.4507 20.1912 19.4089 20.2362C19.3654 20.2821 19.3134 20.3187 19.2558 20.3439C19.196 20.3684 19.132 20.381 19.0675 20.3808C19.008 20.3799 18.9491 20.3681 18.8938 20.3459C18.8449 20.3276 18.8002 20.2994 18.7623 20.2631L18.6191 20.1106C18.5677 20.0508 18.5022 20.0051 18.4287 19.978C18.3572 19.9466 18.28 19.931 18.2021 19.9321C18.1248 19.9305 18.0481 19.9462 17.9774 19.978C17.9085 20.0063 17.845 20.0468 17.79 20.0976C17.7385 20.1508 17.6978 20.2138 17.6703 20.2831C17.6408 20.3551 17.6255 20.4323 17.6252 20.5104C17.6255 20.5894 17.6408 20.6676 17.6703 20.7407C17.7005 20.8076 17.7409 20.8691 17.79 20.9232C17.8437 20.977 17.907 21.0199 17.9764 21.0498C18.0462 21.0789 18.1208 21.0941 18.1962 21.0947C18.2777 21.0928 18.358 21.0742 18.4322 21.0399C18.5064 21.0057 18.573 20.9564 18.6279 20.8952L18.726 20.7866C18.7707 20.7447 18.8222 20.711 18.8781 20.6869C18.9356 20.6593 18.9985 20.645 19.0621 20.645C19.1257 20.645 19.1885 20.6593 19.246 20.6869C19.3021 20.7145 19.3539 20.75 19.4001 20.7926C19.4419 20.8387 19.4769 20.8908 19.5041 20.9471C19.5291 21.0029 19.5425 21.0633 19.5433 21.1246Z" fill="#663C20"/>
<path d="M21.3211 21.9252C21.2359 21.9886 21.1323 22.0212 21.0268 22.0179C20.9616 22.0182 20.897 22.0057 20.8364 21.981C20.7794 21.9552 20.7276 21.9191 20.6834 21.8743C20.6414 21.8291 20.6082 21.7764 20.5853 21.7188C20.5591 21.6585 20.5458 21.5933 20.546 21.5274C20.5479 21.437 20.5694 21.3481 20.6088 21.2671L21.5252 19.29C21.5632 19.2 21.6272 19.1238 21.7087 19.0716C21.7859 19.0185 21.8774 18.9907 21.9706 18.9919C22.0658 18.9903 22.1592 19.0181 22.2385 19.0716C22.3202 19.1252 22.3844 19.2022 22.4229 19.293L23.3472 21.294C23.3838 21.3665 23.403 21.4468 23.4031 21.5284C23.4043 21.5947 23.3909 21.6604 23.3638 21.7208C23.339 21.7787 23.303 21.8309 23.2579 21.8743C23.2137 21.9208 23.1606 21.9575 23.1019 21.9822C23.0431 22.0069 22.98 22.0191 22.9165 22.0179C22.8156 22.0225 22.7165 21.9895 22.6378 21.9252C22.5423 21.8388 22.4686 21.7304 22.4229 21.6091H21.5252C21.4808 21.7284 21.4111 21.8363 21.3211 21.9252ZM22.1227 20.8952L21.9726 20.5353L21.8235 20.8952H22.1227Z" fill="#663C20"/>
<path d="M25.434 21.3279C25.434 21.3957 25.434 21.4586 25.434 21.5014C25.434 21.5443 25.4271 21.5912 25.4232 21.6231C25.4179 21.6529 25.4093 21.6819 25.3977 21.7098C25.3859 21.7378 25.3724 21.7651 25.3574 21.7916C25.3148 21.8613 25.2552 21.9187 25.1844 21.9584C25.1136 21.998 25.034 22.0185 24.9532 22.0179C24.8655 22.0187 24.7793 21.9949 24.704 21.9491C24.6295 21.9059 24.5691 21.8414 24.5303 21.7637C24.5171 21.7397 24.506 21.7147 24.497 21.6889C24.4888 21.6608 24.4826 21.6321 24.4783 21.6031C24.4735 21.5654 24.4712 21.5275 24.4715 21.4895C24.4715 21.4476 24.4715 21.3898 24.4715 21.321V19.5991C24.4669 19.4938 24.4832 19.3887 24.5195 19.29C24.5537 19.2115 24.6105 19.1455 24.6824 19.1005C24.7121 19.0784 24.7453 19.0616 24.7805 19.0507C24.8228 19.0378 24.8661 19.0291 24.91 19.0248C24.9306 19.0248 24.962 19.0178 25.0081 19.0158H25.9402C25.9893 19.0158 26.0325 19.0248 26.0678 19.0277C26.1031 19.0307 26.1325 19.0437 26.158 19.0507C26.1838 19.0616 26.2084 19.0749 26.2316 19.0906C26.2965 19.1278 26.3499 19.1827 26.3857 19.2491C26.4224 19.3147 26.4417 19.3889 26.4416 19.4645C26.442 19.5327 26.4286 19.6003 26.4023 19.663C26.376 19.7258 26.3373 19.7824 26.2885 19.8294C26.2441 19.8677 26.1923 19.8962 26.1365 19.9131C26.0667 19.9295 25.9951 19.9369 25.9236 19.9351H25.433V20.1414H25.7273C25.7906 20.1402 25.8539 20.1439 25.9167 20.1524C25.9596 20.1601 26.0006 20.1764 26.0374 20.2003C26.0874 20.2319 26.1287 20.276 26.1574 20.3283C26.186 20.3806 26.2011 20.4395 26.2012 20.4994C26.2042 20.5497 26.196 20.6001 26.1771 20.6467C26.1583 20.6933 26.1293 20.735 26.0923 20.7686C26.0009 20.8367 25.8884 20.8693 25.7754 20.8603H25.43L25.434 21.3279Z" fill="#663C20"/>
<path d="M28.9446 21.0737C29.0261 21.0719 29.1075 21.0803 29.1869 21.0986C29.2457 21.1171 29.3001 21.1477 29.3469 21.1884C29.3977 21.2304 29.4383 21.2837 29.4657 21.3442C29.4931 21.4047 29.5065 21.4708 29.5048 21.5373C29.5057 21.606 29.492 21.674 29.4646 21.7367C29.4388 21.7994 29.3984 21.8549 29.3469 21.8983C29.3237 21.9168 29.299 21.9335 29.2733 21.9481C29.2476 21.9618 29.2207 21.9728 29.1928 21.981C29.1644 21.981 29.13 21.993 29.0947 21.995C29.0594 21.997 29.0064 21.995 28.9505 21.995H28.2009C28.0881 21.995 28.0096 21.995 27.9625 21.99C27.9174 21.9819 27.8729 21.9713 27.829 21.9581C27.7562 21.9282 27.6924 21.8795 27.644 21.8166C27.5956 21.7538 27.5644 21.6791 27.5533 21.6001C27.5533 21.5862 27.5475 21.5692 27.5445 21.5573C27.5416 21.5453 27.5445 21.5283 27.5386 21.5024C27.5327 21.4765 27.5386 21.4595 27.5386 21.4276V19.6848C27.5386 19.625 27.5386 19.5711 27.5386 19.5332C27.5386 19.4954 27.5386 19.4615 27.5445 19.4395C27.5478 19.4167 27.5523 19.394 27.5582 19.3717C27.5641 19.3548 27.571 19.3318 27.5808 19.3089C27.6023 19.2532 27.6358 19.2031 27.6789 19.1623C27.7191 19.1214 27.7659 19.0876 27.8173 19.0626C27.8403 19.0527 27.8639 19.0441 27.8879 19.0367C27.9118 19.031 27.9361 19.027 27.9605 19.0248C27.987 19.0248 28.0223 19.0178 28.0655 19.0158H28.9819C29.0211 19.0158 29.0564 19.0158 29.0751 19.0158C29.0953 19.0213 29.116 19.0247 29.1369 19.0257C29.1523 19.0302 29.1681 19.0332 29.184 19.0347C29.28 19.0568 29.3658 19.1112 29.4273 19.1893C29.4881 19.2668 29.5204 19.3634 29.5186 19.4625C29.5189 19.5312 29.5045 19.5993 29.4764 19.6619C29.4495 19.7243 29.4093 19.7798 29.3586 19.8244C29.3155 19.8631 29.2641 19.8911 29.2085 19.9061C29.1364 19.9247 29.0621 19.9328 28.9878 19.9301H28.4992V20.1365H28.8828C28.9873 20.1311 29.0899 20.1668 29.1693 20.2362C29.2034 20.269 29.2304 20.3088 29.2483 20.353C29.2662 20.3971 29.2747 20.4447 29.2733 20.4924C29.275 20.5459 29.2645 20.599 29.2425 20.6477C29.2205 20.6963 29.1877 20.7391 29.1467 20.7726C29.1112 20.8033 29.0687 20.8246 29.0231 20.8344C28.9659 20.8462 28.9077 20.8519 28.8494 20.8513H28.4992V21.0717L28.9446 21.0737Z" fill="#663C20"/>
<path d="M41.1774 18.1055C41.1303 18.1472 41.0914 18.1976 41.0626 18.254C41.0184 18.3172 40.9794 18.3839 40.9458 18.4534C40.926 18.4907 40.9139 18.5318 40.9105 18.5741C40.9103 18.6075 40.9171 18.6405 40.9302 18.6711C40.9434 18.7017 40.9628 18.7291 40.9871 18.7516C41.039 18.7989 41.1066 18.8245 41.1764 18.8233C41.225 18.8261 41.2731 18.812 41.3128 18.7835C41.3658 18.7421 41.4088 18.6889 41.4384 18.6279C41.4807 18.5654 41.5165 18.4985 41.5453 18.4285C41.5645 18.39 41.5759 18.348 41.5787 18.3049C41.5789 18.2721 41.5721 18.2396 41.5589 18.2097C41.5457 18.1798 41.5264 18.1531 41.5022 18.1314C41.4777 18.1078 41.4489 18.0894 41.4174 18.0773C41.3859 18.0651 41.3524 18.0595 41.3187 18.0606C41.2683 18.0613 41.2192 18.0769 41.1774 18.1055Z" fill="#663C20"/>
<path d="M37.555 19.2551C37.5957 19.1774 37.656 19.112 37.7296 19.0656C37.8051 19.0173 37.8926 18.9917 37.9818 18.9919C38.0437 18.9921 38.1049 19.0043 38.1623 19.0278C38.2203 19.049 38.2729 19.0831 38.3164 19.1275C38.3581 19.1643 38.3916 19.2099 38.4145 19.2611C38.4393 19.3233 38.4583 19.3877 38.4714 19.4535L38.802 21.3708C38.8099 21.4057 38.8128 21.4366 38.8177 21.4645C38.8192 21.4891 38.8192 21.5138 38.8177 21.5383C38.8191 21.6037 38.8067 21.6686 38.7814 21.7288C38.7587 21.7844 38.7254 21.8349 38.6833 21.8773C38.6368 21.9172 38.5853 21.9507 38.5303 21.977C38.472 22.0012 38.4097 22.0137 38.3468 22.0139C38.2327 22.0174 38.121 21.9804 38.0309 21.9092C37.9431 21.845 37.8836 21.7483 37.865 21.64L37.7581 21.0797L37.5648 21.6061C37.4667 21.8783 37.3048 22.0139 37.0674 22.0139C36.9622 22.0148 36.8593 21.9824 36.773 21.9212C36.6828 21.8369 36.6152 21.7305 36.5768 21.6121L36.3865 21.0797L36.309 21.5523C36.2933 21.6809 36.2348 21.8002 36.1431 21.8903C36.1008 21.9312 36.0509 21.9632 35.9964 21.9844C35.9418 22.0056 35.8836 22.0157 35.8253 22.0139C35.7591 22.0164 35.6932 22.004 35.6321 21.9779C35.5711 21.9517 35.5165 21.9123 35.472 21.8624C35.3788 21.7576 35.3301 21.6196 35.3366 21.4785C35.3366 21.4556 35.3366 21.4376 35.3366 21.4197C35.3388 21.3989 35.3421 21.3783 35.3465 21.3579L35.6781 19.4505C35.6948 19.3226 35.7507 19.2032 35.838 19.1095C35.9241 19.0281 36.0383 18.9844 36.1559 18.9879C36.257 18.99 36.3556 19.0207 36.4404 19.0766C36.528 19.1363 36.5962 19.2209 36.6367 19.3199L37.0644 20.31L37.555 19.2551Z" fill="#663C20"/>
<path d="M42.6147 21.294L41.6925 19.293C41.6535 19.2028 41.5898 19.126 41.509 19.0716C41.429 19.0181 41.335 18.9904 41.2392 18.9918C41.1448 18.9924 41.0525 19.021 40.9739 19.0741C40.8953 19.1273 40.8337 19.2027 40.7967 19.291L39.8784 21.2681C39.8389 21.3491 39.8175 21.438 39.8156 21.5283C39.8151 21.594 39.8275 21.659 39.8519 21.7198C39.8769 21.7774 39.9118 21.8301 39.9549 21.8753C39.9982 21.9202 40.0494 21.9564 40.106 21.982C40.1662 22.0067 40.2305 22.0192 40.2953 22.0189C40.4008 22.0219 40.5043 21.9893 40.5897 21.9262C40.6791 21.8355 40.7484 21.7263 40.7928 21.6061H41.6886C41.7344 21.7269 41.8073 21.8351 41.9015 21.9222C41.9808 21.9867 42.0805 22.0197 42.1821 22.0149C42.246 22.0151 42.3093 22.0025 42.3685 21.978C42.4262 21.952 42.479 21.9159 42.5245 21.8713C42.5681 21.8268 42.6036 21.7748 42.6295 21.7178C42.655 21.657 42.6677 21.5914 42.6667 21.5254C42.6674 21.4452 42.6496 21.366 42.6147 21.294ZM41.0901 20.8952L41.2392 20.5353L41.3893 20.8952H41.0901Z" fill="#663C20"/>
<path d="M44.8155 22.0737C44.6686 22.073 44.5224 22.0526 44.3808 22.0129C44.2561 21.9799 44.1378 21.926 44.0305 21.8534C43.9353 21.7919 43.8548 21.7094 43.7951 21.6121C43.7391 21.5229 43.7104 21.4188 43.7127 21.313C43.7125 21.2534 43.7232 21.1942 43.744 21.1385C43.7684 21.0859 43.8016 21.0379 43.8422 20.9969C43.8834 20.9551 43.9323 20.922 43.9862 20.8996C44.0401 20.8772 44.0979 20.8659 44.1561 20.8663C44.2138 20.866 44.2709 20.8779 44.3239 20.9012C44.3885 20.9252 44.4478 20.9618 44.4985 21.0089C44.5515 21.0508 44.5967 21.0827 44.6261 21.1086C44.6555 21.1345 44.684 21.1465 44.7046 21.1614C44.7212 21.1728 44.7399 21.1806 44.7595 21.1844C44.7745 21.1888 44.79 21.1915 44.8056 21.1923C44.8225 21.1926 44.8392 21.1895 44.8549 21.1832C44.8706 21.1768 44.8848 21.1674 44.8969 21.1555C44.9204 21.1279 44.9327 21.0922 44.9312 21.0557C44.9303 21.0299 44.9228 21.0046 44.9096 20.9825C44.8964 20.9603 44.8778 20.942 44.8557 20.9291C44.8488 20.9279 44.8422 20.9255 44.8361 20.9221C44.8264 20.9153 44.8163 20.9093 44.8056 20.9042C44.788 20.8982 44.7733 20.8912 44.7507 20.8813C44.7281 20.8713 44.7016 20.8603 44.6624 20.8454C44.6231 20.8304 44.5819 20.8155 44.5427 20.8025L44.424 20.7606C44.0001 20.6104 43.7879 20.3276 43.7872 19.9121C43.7855 19.7751 43.8123 19.6392 43.8657 19.5133C43.9167 19.3951 43.9912 19.2888 44.0845 19.2012C44.1855 19.1132 44.302 19.0455 44.4279 19.0018C44.5675 18.9522 44.7147 18.9286 44.8625 18.932C44.9867 18.9312 45.1105 18.9473 45.2305 18.9799C45.3369 19.0108 45.4383 19.0572 45.5317 19.1175C45.6095 19.1729 45.6761 19.2429 45.7279 19.3239C45.7745 19.4021 45.7992 19.4917 45.7995 19.5831C45.8056 19.6898 45.7703 19.7946 45.7014 19.8752C45.6661 19.9127 45.6233 19.9422 45.576 19.9618C45.5286 19.9814 45.4778 19.9906 45.4267 19.9889C45.3614 19.9891 45.2968 19.9762 45.2364 19.951C45.1632 19.9136 45.0933 19.8699 45.0274 19.8204C44.991 19.7878 44.9512 19.7594 44.9087 19.7357C44.8836 19.7208 44.8552 19.7129 44.8262 19.7127C44.7959 19.7118 44.7663 19.7229 44.7438 19.7436C44.722 19.7663 44.7097 19.7967 44.7095 19.8284C44.7091 19.8501 44.7147 19.8715 44.7256 19.8902C44.7365 19.9088 44.7523 19.924 44.7713 19.9341C44.844 19.9765 44.9214 20.0099 45.0019 20.0338C45.1241 20.0705 45.2432 20.1172 45.358 20.1734C45.4535 20.2184 45.5424 20.2768 45.6219 20.3468C45.7177 20.427 45.7929 20.5296 45.8407 20.646C45.8924 20.7723 45.9188 20.9079 45.9183 21.0448C45.9196 21.1776 45.8953 21.3094 45.8466 21.4326C45.8018 21.5549 45.7322 21.6663 45.6426 21.7597C45.5439 21.8589 45.425 21.9348 45.2942 21.982C45.1417 22.0429 44.9793 22.074 44.8155 22.0737Z" fill="#663C20"/>
<path d="M33.4402 20.4994C33.3973 20.5026 33.3558 20.5158 33.3187 20.538C33.2816 20.5601 33.25 20.5905 33.2263 20.627C33.1714 20.7058 33.1203 20.8264 33.0664 20.9261L32.6553 20.4386C32.9496 20.29 33.1684 20.0148 33.1684 19.6888C33.1684 19.3627 32.9673 18.9599 32.3168 18.9599C31.8772 18.9599 31.4985 19.2212 31.4985 19.7027C31.4985 19.955 31.632 20.1285 31.7781 20.301C31.419 20.4755 31.1365 20.7686 31.1365 21.2173C31.1365 21.6161 31.4122 22.0468 32.0548 22.0468C32.2294 22.0548 32.4038 22.0267 32.5674 21.9641C32.731 21.9016 32.8804 21.8059 33.0065 21.6829L33.1979 21.9032C33.219 21.9386 33.2484 21.968 33.2835 21.9889C33.3187 22.0098 33.3583 22.0214 33.399 22.0229C33.4364 22.0263 33.4741 22.0221 33.5099 22.0106C33.5457 21.9991 33.5789 21.9804 33.6076 21.9557C33.6363 21.9311 33.6598 21.9009 33.6769 21.8668C33.694 21.8328 33.7042 21.7957 33.7071 21.7577C33.7071 21.6977 33.6866 21.6395 33.6492 21.5931L33.4019 21.294C33.553 21.1495 33.7071 20.8783 33.7071 20.7347C33.6999 20.6685 33.6685 20.6075 33.619 20.5639C33.5695 20.5203 33.5057 20.4972 33.4402 20.4994ZM32.3413 19.3897C32.3795 19.3867 32.4178 19.3915 32.4542 19.4038C32.4905 19.416 32.524 19.4356 32.5528 19.4612C32.5816 19.4868 32.605 19.5181 32.6218 19.553C32.6385 19.588 32.6483 19.626 32.6504 19.6648C32.6504 19.8992 32.4541 20.0148 32.3138 20.1006C32.1627 19.9699 32.0411 19.8663 32.0411 19.6539C32.043 19.6163 32.0525 19.5794 32.0687 19.5456C32.085 19.5117 32.1079 19.4816 32.1359 19.4569C32.1639 19.4322 32.1966 19.4136 32.2319 19.402C32.2672 19.3905 32.3044 19.3863 32.3413 19.3897ZM32.1363 21.5832C32.083 21.5865 32.0297 21.5783 31.9797 21.5592C31.9298 21.54 31.8845 21.5104 31.8466 21.4721C31.8088 21.4339 31.7794 21.3879 31.7603 21.3373C31.7412 21.2867 31.7329 21.2325 31.736 21.1784C31.736 20.963 31.9047 20.8135 32.1431 20.6798L32.6798 21.3259C32.5384 21.4796 32.3431 21.5702 32.1363 21.5782V21.5832Z" fill="#DF1683"/>
<path fill-rule="evenodd" clip-rule="evenodd" d="M45.9496 14.7614C45.604 14.4989 45.2139 14.3033 44.7988 14.1841C44.6628 14.1454 44.5313 14.0923 44.4063 14.0255C44.3597 14.0073 44.3197 13.9752 44.2914 13.9334C44.2632 13.8915 44.2482 13.8419 44.2483 13.7912C44.2498 13.7301 44.2742 13.6718 44.3164 13.6282C44.3587 13.5847 44.4158 13.5592 44.476 13.5569C44.58 13.5569 44.6722 13.6068 44.8625 13.7563C44.9975 13.8719 45.1517 13.962 45.3178 14.0225C45.4059 14.0543 45.499 14.0699 45.5925 14.0684C45.6763 14.0685 45.7595 14.0529 45.8378 14.0225C45.9735 13.9698 46.0892 13.8747 46.1684 13.7509C46.2475 13.6271 46.286 13.481 46.2783 13.3336C46.2768 13.2391 46.2616 13.1454 46.2332 13.0554C46.0566 12.528 45.3855 12.1431 44.5505 12.1431C43.7411 12.1431 43.1033 12.4921 42.7904 13.0554C42.644 13.3251 42.5692 13.6288 42.5735 13.9368C42.5735 13.9657 42.5735 13.9976 42.5735 14.0225C42.602 14.7344 42.9895 15.219 43.7391 15.4902C43.8873 15.549 44.0335 15.5969 44.1816 15.6457C44.3075 15.6842 44.4284 15.7377 44.5417 15.8053C44.5858 15.8285 44.6227 15.8637 44.6482 15.907C44.6737 15.9504 44.6867 16.0001 44.6859 16.0505C44.6883 16.084 44.6837 16.1177 44.6724 16.1493C44.6611 16.1808 44.6434 16.2096 44.6205 16.2338C44.5975 16.258 44.5698 16.277 44.5392 16.2895C44.5085 16.3021 44.4756 16.308 44.4426 16.3068C44.3052 16.3068 44.2532 16.2699 43.8637 15.9648C43.6957 15.8013 43.4733 15.708 43.2407 15.7036C43.1355 15.7022 43.031 15.7223 42.9335 15.7625C42.8359 15.8027 42.7473 15.8623 42.6727 15.9378C42.5981 16.0133 42.5392 16.1032 42.4992 16.2022C42.4593 16.3011 42.4392 16.4072 42.4401 16.5142C42.4407 16.6572 42.4708 16.7985 42.5284 16.9289C42.7786 17.4923 43.5311 17.8941 44.4701 17.8941C45.1323 17.8941 45.618 17.7166 45.9771 17.3467C46.095 17.223 46.1942 17.0822 46.2714 16.9289C46.4082 16.6545 46.4794 16.3512 46.4794 16.0436C46.4834 15.5301 46.2793 15.0375 45.9496 14.7614Z" fill="#DF1683"/>
<path fill-rule="evenodd" clip-rule="evenodd" d="M25.9208 5.98329C25.7884 5.98588 25.6581 6.01814 25.5394 6.07778C25.4207 6.13741 25.3164 6.22294 25.234 6.32827C25.0731 6.52768 25.0377 6.65231 25.0377 7.05412V9.24763C25.0377 9.62552 24.8592 9.85683 24.5472 9.85683C24.2352 9.85683 24.0566 9.61654 24.0566 9.22271V7.05412C24.0566 6.66527 23.9918 6.45589 23.8133 6.27343C23.7248 6.17684 23.6167 6.10096 23.4965 6.05104C23.3763 6.00113 23.2468 5.97837 23.1171 5.98434C22.9874 5.99032 22.8605 6.02488 22.7452 6.08565C22.6299 6.14641 22.529 6.23192 22.4495 6.33624C22.2955 6.54662 22.2631 6.67624 22.2631 7.1967V9.13397C22.2631 9.85983 22.369 10.2467 22.7016 10.7113C22.9015 10.9946 23.1622 11.2278 23.4641 11.3933C23.7659 11.5588 24.1009 11.6522 24.4436 11.6665C24.7862 11.6807 25.1276 11.6154 25.4417 11.4754C25.7558 11.3355 26.0344 11.1246 26.2563 10.8589C26.6488 10.4112 26.8234 9.87578 26.8234 9.13397V7.17975C26.8234 6.68621 26.7842 6.5197 26.6134 6.3153C26.527 6.21408 26.4208 6.13228 26.3015 6.07511C26.1823 6.01794 26.0526 5.98667 25.9208 5.98329ZM21.4556 7.79692C21.305 7.38611 21.0593 7.01815 20.7394 6.7241C20.2096 6.24751 19.5846 6.02616 18.7771 6.02616H17.6782C17.1582 6.02616 16.8246 6.22557 16.6971 6.62439C16.6569 6.74803 16.6569 6.79588 16.6569 7.25652V10.2896C16.6569 10.6694 16.6569 10.7592 16.6902 10.8828C16.7155 10.9874 16.7617 11.0856 16.8258 11.1713C16.8899 11.2571 16.9707 11.3285 17.0631 11.3813C17.2249 11.498 17.3957 11.5319 17.8185 11.5319H18.572C18.8796 11.5375 19.187 11.5144 19.4904 11.4631C19.8714 11.3798 20.2303 11.214 20.5426 10.9769C20.8549 10.7399 21.1132 10.4372 21.2999 10.0895C21.4866 9.74183 21.5973 9.35732 21.6245 8.9622C21.6517 8.56708 21.5948 8.17064 21.4576 7.79991L21.4556 7.79692ZM19.1911 7.79692C19.2213 7.80504 19.2506 7.8164 19.2785 7.83082C19.4515 7.91878 19.5971 8.05399 19.6988 8.22129C19.8006 8.38858 19.8544 8.58136 19.8544 8.77802C19.8523 8.94889 19.8116 9.117 19.7354 9.26932C19.6592 9.42164 19.5495 9.55409 19.4148 9.65643C19.2029 9.80399 19.0567 9.82792 18.4406 9.8349V7.71816H18.5877C18.7917 7.70778 18.9958 7.73342 19.1911 7.79393V7.79692ZM31.527 5.98329C31.3828 5.98432 31.2411 6.02121 31.1142 6.09073C30.9873 6.16025 30.8791 6.26029 30.799 6.38211C30.6655 6.57354 30.6351 6.73706 30.6351 7.09998V8.12296L30.3761 7.80091L29.2154 6.34422C29.0104 6.08897 28.8083 5.98329 28.5492 5.98329C27.989 5.98329 27.6152 6.36815 27.6152 6.9584V10.4391C27.6152 10.8439 27.6564 11.0074 27.7987 11.2138C27.8842 11.3233 27.9929 11.4119 28.1167 11.4728C28.2406 11.5337 28.3763 11.5655 28.5139 11.5658C28.645 11.5655 28.7745 11.5359 28.8931 11.4792C29.0118 11.4226 29.1168 11.3401 29.2007 11.2378C29.3577 11.0383 29.4038 10.8768 29.4038 10.5109V9.35532L30.8166 11.1969C30.8963 11.3115 31.002 11.4048 31.1249 11.4689C31.2477 11.533 31.384 11.5659 31.5221 11.5648C31.6562 11.5667 31.789 11.5375 31.9104 11.4795C32.0318 11.4214 32.1386 11.336 32.2226 11.2298C32.3767 11.0214 32.4139 10.8429 32.4139 10.4022V7.04116C32.4139 6.70017 32.36 6.51172 32.203 6.3153C32.1217 6.21235 32.0188 6.12913 31.9019 6.07169C31.785 6.01425 31.6569 5.98405 31.527 5.98329ZM36.6475 8.71421L37.2696 7.79692L37.5551 7.37019C37.648 7.22741 37.6968 7.05974 37.6954 6.88861C37.6893 6.64838 37.5919 6.41989 37.4236 6.25109C37.2553 6.08228 37.0292 5.9863 36.7928 5.98329C36.6445 5.98426 36.499 6.02347 36.3698 6.09724C36.2406 6.17101 36.1319 6.27692 36.054 6.40504L35.1248 7.80091L35.065 7.88965V7.00826C35.065 6.68022 34.9963 6.47384 34.8275 6.29536C34.744 6.19783 34.6406 6.1198 34.5246 6.06663C34.4086 6.01345 34.2827 5.98638 34.1555 5.98727C33.6207 5.98727 33.2626 6.40005 33.2626 7.00327V10.5328C33.2626 11.165 33.6109 11.5688 34.1712 11.5688C34.7078 11.5688 35.065 11.159 35.065 10.5219V9.57367L36.4003 11.2996C36.4805 11.387 36.578 11.4562 36.6864 11.5026C36.7948 11.549 36.9116 11.5716 37.0292 11.5688C37.2672 11.5646 37.494 11.4656 37.6608 11.2931C37.8276 11.1206 37.9211 10.8884 37.9211 10.6465C37.9245 10.4653 37.8647 10.2887 37.7523 10.148L36.6475 8.71421ZM45.0117 5.98329C44.8676 5.98432 44.7259 6.02121 44.599 6.09073C44.4721 6.16025 44.3638 6.26029 44.2837 6.38211C44.1513 6.57354 44.1199 6.73706 44.1199 7.09998V8.12296L43.8589 7.80091L42.7002 6.34821C42.4961 6.09296 42.293 5.98727 42.033 5.98727C41.4757 5.98727 41.1019 6.37214 41.1019 6.96239V10.4391C41.1019 10.8439 41.1421 11.0074 41.2883 11.2138C41.3712 11.3215 41.4767 11.409 41.5971 11.4699C41.7175 11.5308 41.8497 11.5636 41.9842 11.5659C42.1187 11.5682 42.252 11.5399 42.3743 11.4832C42.4967 11.4264 42.605 11.3425 42.6914 11.2378C42.8483 11.0383 42.8935 10.8768 42.8935 10.5109V9.35532L44.3053 11.1969C44.3854 11.3113 44.4914 11.4044 44.6143 11.4684C44.7373 11.5325 44.8736 11.5655 45.0117 11.5648C45.1459 11.5667 45.2787 11.5375 45.4001 11.4795C45.5215 11.4214 45.6282 11.336 45.7123 11.2298C45.8653 11.0214 45.9085 10.8429 45.9085 10.4022V7.04116C45.9085 6.70017 45.8545 6.51172 45.6985 6.3153C45.6156 6.21146 45.511 6.12775 45.3921 6.0703C45.2733 6.01286 45.1433 5.98313 45.0117 5.98329ZM47.2949 5.98329C46.8239 5.98329 46.5031 6.56058 46.5031 7.04116C46.4952 7.29403 46.511 7.54709 46.5502 7.79692C46.6139 8.11897 46.7709 8.40812 47.1271 8.47991C47.5078 8.55668 47.7648 8.19874 47.9189 7.79692C48.0185 7.52837 48.0748 7.24521 48.0857 6.9584C48.0886 6.47583 47.7678 5.98329 47.2978 5.98329H47.2949ZM39.3624 5.98329C39.2377 5.98136 39.114 6.00713 39.0002 6.05879C38.8863 6.11046 38.7849 6.18677 38.703 6.2824C38.5156 6.48879 38.4774 6.6533 38.4774 7.11394V10.5189C38.4774 10.8978 38.5333 11.0892 38.703 11.2786C38.7893 11.3705 38.8933 11.4434 39.0084 11.4928C39.1236 11.5422 39.2475 11.5671 39.3725 11.5659C39.4975 11.5647 39.6209 11.5374 39.7351 11.4857C39.8493 11.4341 39.9518 11.3592 40.0364 11.2657C40.1963 11.0832 40.2621 10.8668 40.2621 10.5189V7.11295C40.2621 6.66527 40.2061 6.47583 40.0246 6.27343C39.9409 6.18081 39.8389 6.10711 39.7253 6.05713C39.6117 6.00715 39.4891 5.98199 39.3653 5.98329H39.3624Z" fill="#E3711C"/>
<path fill-rule="evenodd" clip-rule="evenodd" d="M37.7513 13.0584C37.7445 12.8742 37.6752 12.698 37.555 12.5599C37.4694 12.4599 37.3639 12.3795 37.2456 12.3238C37.1272 12.2681 36.9986 12.2385 36.8682 12.2368C36.7374 12.2391 36.6087 12.2708 36.4915 12.3298C36.3742 12.3888 36.2714 12.4735 36.1903 12.5778C36.0714 12.7088 36.0052 12.8803 36.0048 13.0584C36.0048 13.1232 35.998 13.202 35.998 13.2957V15.4952C35.998 15.8801 35.8155 16.1214 35.4956 16.1214C35.1758 16.1214 34.9913 15.8701 34.9913 15.4683V13.2957C34.9913 13.2165 34.9874 13.1373 34.9795 13.0584C34.9707 12.8561 34.889 12.6641 34.75 12.519C34.6624 12.4243 34.5556 12.35 34.4371 12.3013C34.3185 12.2527 34.1909 12.2307 34.0632 12.2371C33.9355 12.2434 33.8106 12.2779 33.6973 12.3381C33.5839 12.3983 33.4848 12.4828 33.4068 12.5858C33.298 12.7185 33.2383 12.8857 33.238 13.0584C33.2268 13.184 33.2226 13.3102 33.2253 13.4363V15.3785C33.2253 16.0934 33.3283 16.4823 33.6491 16.934C33.6491 16.934 33.657 16.9459 33.6599 16.9459C33.8589 17.228 34.1186 17.4602 34.4191 17.625C34.7197 17.7898 35.0532 17.8829 35.3945 17.8971C35.7357 17.9113 36.0756 17.8464 36.3885 17.7071C36.7013 17.5679 36.9788 17.358 37.1999 17.0935C37.244 17.0416 37.2882 16.9888 37.3313 16.934C37.6257 16.5212 37.762 16.0316 37.762 15.3785V13.4203C37.7571 13.2718 37.7571 13.1581 37.7513 13.0584Z" fill="#DF1683"/>
<path fill-rule="evenodd" clip-rule="evenodd" d="M20.8904 16.929C21.381 16.4162 21.6564 15.7298 21.6586 15.0146C21.6578 14.6768 21.5977 14.3419 21.481 14.0255C21.3435 13.6622 21.1318 13.3326 20.86 13.0584C20.8305 13.0335 20.7991 13.0036 20.7707 12.9756C20.2428 12.4981 19.6198 12.2777 18.8084 12.2777H17.7125C17.1954 12.2777 16.8687 12.4771 16.7431 12.867C16.7202 12.9285 16.7083 12.9936 16.7078 13.0594C16.7019 13.1491 16.7019 13.2728 16.7019 13.5031V14.0285V16.5391C16.7019 16.7325 16.7019 16.8492 16.7078 16.9379C16.7092 17.0031 16.7174 17.0679 16.7323 17.1314C16.7595 17.2332 16.8062 17.3286 16.8699 17.4119C16.9335 17.4953 17.0128 17.5649 17.1032 17.6169C17.2602 17.7296 17.4289 17.7645 17.8508 17.7645H18.6073C18.9145 17.7689 19.2214 17.7459 19.5246 17.6957C19.9983 17.5949 20.4363 17.3658 20.7923 17.0326C20.8276 16.9997 20.86 16.9668 20.8904 16.9379V16.929ZM18.4611 14.0285V13.9428H18.624C18.8383 13.9311 19.0529 13.9602 19.2568 14.0285C19.2778 14.0395 19.2994 14.0491 19.3215 14.0574C19.4984 14.1469 19.6472 14.2847 19.7512 14.4554C19.8552 14.6261 19.9103 14.8228 19.9102 15.0236C19.9083 15.1972 19.8666 15.368 19.7887 15.5225C19.7107 15.677 19.5985 15.811 19.4609 15.914C19.248 16.0675 19.0959 16.0924 18.4797 16.1004H18.465V14.0285H18.4611Z" fill="#DF1683"/>
<path fill-rule="evenodd" clip-rule="evenodd" d="M27.3512 14.0285C27.2191 13.6701 27.0191 13.3415 26.7625 13.0614C26.493 12.7731 26.1685 12.5435 25.8089 12.3867C25.4493 12.2298 25.0621 12.1489 24.6707 12.1489C24.2794 12.1489 23.8922 12.2298 23.5326 12.3867C23.173 12.5435 22.8485 12.7731 22.579 13.0614C22.3235 13.3413 22.1254 13.67 21.9962 14.0285C21.8886 14.3378 21.8338 14.6636 21.8343 14.9917C21.8302 15.7068 22.0852 16.3985 22.5505 16.9349C22.8179 17.2386 23.1454 17.4816 23.5115 17.6479C23.8776 17.8142 24.2741 17.9002 24.6752 17.9002C25.0762 17.9002 25.4727 17.8142 25.8388 17.6479C26.2049 17.4816 26.5324 17.2386 26.7998 16.9349C27.142 16.5466 27.374 16.0711 27.4711 15.5592C27.5682 15.0474 27.5268 14.5183 27.3512 14.0285ZM24.6806 16.1303C24.3928 16.1264 24.1182 16.0074 23.9162 15.7991C23.7141 15.5908 23.601 15.31 23.6013 15.0176C23.6024 14.8061 23.6646 14.5996 23.7803 14.4237C23.8959 14.2479 24.0599 14.1104 24.2518 14.0285C24.3892 13.9729 24.5356 13.9438 24.6835 13.9428C24.8308 13.9438 24.9765 13.9729 25.1132 14.0285C25.3054 14.1126 25.4693 14.2516 25.5852 14.4286C25.701 14.6056 25.7637 14.813 25.7657 15.0256C25.7634 15.3167 25.6487 15.5953 25.4463 15.8013C25.2439 16.0074 24.97 16.1245 24.6835 16.1273L24.6806 16.1303Z" fill="#DF1683"/>
<path fill-rule="evenodd" clip-rule="evenodd" d="M32.6288 13.0584C32.6169 12.8753 32.5482 12.7008 32.4326 12.5599C32.351 12.4595 32.2487 12.3785 32.1329 12.3227C32.0171 12.2668 31.8906 12.2375 31.7625 12.2368C31.6202 12.2377 31.4802 12.2736 31.3545 12.3413C31.2287 12.409 31.121 12.5066 31.0403 12.6257C30.9513 12.7526 30.8999 12.9028 30.8922 13.0584C30.8922 13.1392 30.8834 13.2309 30.8834 13.3366V14.4064L30.5763 14.0286L29.8031 13.0614L29.4264 12.5988C29.2301 12.3425 29.028 12.2398 28.7729 12.2398C28.2647 12.2398 27.9135 12.5619 27.8605 13.0614C27.8605 13.1063 27.8605 13.1511 27.8605 13.198V16.6877C27.8605 16.7874 27.8605 16.8622 27.8605 16.937C27.8674 17.1182 27.9282 17.293 28.0349 17.4384C28.1415 17.5837 28.289 17.6929 28.4579 17.7514C28.6268 17.8099 28.8092 17.815 28.981 17.7661C29.1529 17.7172 29.3061 17.6165 29.4205 17.4774C29.546 17.3261 29.6155 17.1349 29.6167 16.937C29.6216 16.8801 29.6216 16.8243 29.6216 16.7615V15.554L30.6803 16.934L31.0659 17.4325C31.1443 17.5462 31.2486 17.6389 31.3699 17.7028C31.4912 17.7667 31.6258 17.7998 31.7625 17.7994C31.8945 17.8012 32.0252 17.7719 32.1443 17.714C32.2634 17.6561 32.3678 17.571 32.4493 17.4654C32.5664 17.3127 32.6318 17.1256 32.6357 16.932V16.927C32.6357 16.8502 32.6455 16.7565 32.6455 16.6478V13.2788C32.6416 13.195 32.6337 13.1232 32.6288 13.0584Z" fill="#DF1683"/>
<path fill-rule="evenodd" clip-rule="evenodd" d="M42.5333 13.0584C42.5242 12.8646 42.4465 12.6807 42.3145 12.5406C42.1825 12.4004 42.0052 12.3134 41.8151 12.2956C41.7648 12.2848 41.7135 12.2791 41.662 12.2787C41.5855 12.2787 41.4658 12.2787 41.2088 12.2787H39.4025C38.6921 12.2787 38.6176 12.2877 38.437 12.3674C38.3104 12.4348 38.2027 12.5337 38.1239 12.6549C38.0452 12.7761 37.9979 12.9156 37.9867 13.0604C37.9857 13.0786 37.9857 13.0969 37.9867 13.1152C37.9901 13.3377 38.0793 13.55 38.2349 13.7065C38.3948 13.87 38.5911 13.9418 38.8992 13.9418H39.3946V16.7166C39.3946 16.7993 39.3946 16.8681 39.4005 16.9359C39.4015 17.111 39.4515 17.2822 39.5447 17.4295C39.6284 17.5465 39.7384 17.6416 39.8655 17.7066C39.9927 17.7717 40.1333 17.8048 40.2757 17.8034C40.4207 17.8056 40.5638 17.7694 40.6908 17.6982C40.8178 17.627 40.9243 17.5234 40.9998 17.3976C41.0867 17.2593 41.1358 17.0999 41.142 16.9359C41.1489 16.8651 41.1518 16.7903 41.1518 16.7036V13.9418H41.5659C41.8916 13.9418 42.1143 13.875 42.2527 13.7473C42.3403 13.6652 42.4108 13.566 42.4602 13.4558C42.5096 13.3455 42.5367 13.2263 42.5402 13.1052C42.5343 13.0863 42.5343 13.0723 42.5333 13.0584Z" fill="#DF1683"/>
<path d="M0.958497 7.78597V9.24266C1.15472 8.81692 1.61095 8.36326 2.34092 7.88168C1.84804 7.86848 1.37679 7.67316 1.0154 7.33231C0.977475 7.48044 0.958351 7.6329 0.958497 7.78597Z" fill="#E3711C"/>
<path d="M3.62328 14.88C3.0346 14.7973 2.65686 14.557 2.50086 14.1562C2.50086 14.1562 1.03995 10.3933 1.02131 10.3484C0.995286 10.3087 0.972951 10.2667 0.95459 10.2228V20.2651C0.955623 20.7439 1.14306 21.2029 1.47598 21.5418C1.80889 21.8807 2.26023 22.0719 2.73143 22.0737H7.38595C7.22449 21.9017 7.08774 21.7073 6.97976 21.4964C6.97976 21.4964 4.12661 15.8711 3.62328 14.88Z" fill="#E3711C"/>
<path d="M13.315 5.98331H10.6816C10.6816 5.98331 10.6816 5.98929 10.6816 5.99328C10.7286 6.05832 10.7675 6.12897 10.7974 6.20366C10.8173 6.26269 10.8333 6.32297 10.8455 6.38412C12.121 9.66642 12.2976 10.1241 12.326 10.1939C12.3253 10.1981 12.3253 10.2025 12.326 10.2068C12.3256 10.2032 12.3256 10.1995 12.326 10.1959C12.3696 10.3104 12.3922 10.432 12.3927 10.5548C12.3927 10.8539 12.2603 11.172 12.0003 11.5C12.3211 12.507 12.9098 14.5091 13.9557 18.4355L14.0126 18.6459C14.0115 18.6409 14.0115 18.6358 14.0126 18.6309C14.4198 19.9789 13.8095 21.2502 12.4075 22.0757H13.316C13.7866 22.0726 14.2369 21.8804 14.5686 21.5413C14.9004 21.2021 15.0867 20.7433 15.0869 20.2651V7.78598C15.0857 7.30863 14.8986 6.85118 14.5667 6.51345C14.2347 6.17573 13.7847 5.98515 13.315 5.98331Z" fill="#DF1683"/>
<path d="M13.4946 18.7895L13.4387 18.5781C12.3329 14.4363 11.7413 12.4432 11.4352 11.499C11.4227 11.4601 11.4207 11.4185 11.4294 11.3786C11.438 11.3386 11.4569 11.3017 11.4842 11.2717C11.8021 10.9147 11.9169 10.6226 11.8266 10.3903L10.3392 6.56061C10.3317 6.5454 10.3274 6.52876 10.3265 6.51175C10.3227 6.47562 10.3135 6.4403 10.299 6.40706C10.285 6.36572 10.2634 6.32747 10.2352 6.29439C10.2287 6.2845 10.2228 6.27418 10.2176 6.26348C10.0164 5.88261 9.15108 5.84273 7.84323 6.14882C7.00121 6.34167 6.17547 6.60171 5.3737 6.92652C4.5725 7.24944 3.79706 7.63478 3.05429 8.07912C1.8936 8.76908 1.28824 9.4032 1.40107 9.81698C1.40374 9.82848 1.40571 9.84013 1.40696 9.85187C1.41409 9.93235 1.4422 10.0094 1.48839 10.0752C1.49926 10.09 1.50756 10.1065 1.51292 10.1241L3.00033 13.9547C3.09124 14.1841 3.3712 14.317 3.84018 14.3536C3.87898 14.3556 3.91655 14.3681 3.94898 14.3898C3.98141 14.4116 4.00753 14.4417 4.02463 14.4772L7.45862 21.2392C8.11794 22.5673 9.99682 22.5234 11.4685 21.9242C13.1247 21.2482 13.8841 20.0766 13.4946 18.7895ZM5.58661 7.41707C8.0473 6.42002 9.62203 6.37416 9.88498 6.54166C9.85358 6.66231 9.65931 6.90559 9.27765 7.20869C8.40934 7.30142 7.11915 7.66235 5.87702 8.16187C4.6349 8.6614 3.44576 9.35834 2.75014 9.88578C2.26643 9.93064 1.96522 9.89375 1.85632 9.82495C1.93285 9.51786 3.12591 8.40814 5.58661 7.41707ZM3.4801 13.6905L2.23406 10.5289C3.39572 10.6136 5.21377 10.0523 6.40586 9.56971C7.59794 9.08714 9.30512 8.23366 10.094 7.35625L11.342 10.5219C11.2939 10.8689 10.0007 12.0175 7.73432 12.9298C5.46789 13.8421 3.74599 13.9129 3.4801 13.6905ZM11.2831 21.3957C9.98603 21.9252 8.41817 21.9491 7.93153 20.967C7.76375 20.627 5.60721 16.6049 4.55641 14.3406C5.63566 14.2309 6.94843 13.8421 7.91387 13.4482C8.87931 13.0544 10.1008 12.4263 10.9554 11.7592C11.7177 14.1392 12.8912 18.5472 12.9981 18.9081C13.3298 19.9869 12.5154 20.8912 11.2831 21.3957Z" fill="#663C20"/>
<path d="M2.75013 9.88577C3.44576 9.35533 4.6349 8.66438 5.87702 8.16186C7.11914 7.65935 8.40934 7.30141 9.27764 7.20868C9.65931 6.90956 9.85357 6.66229 9.88497 6.54165C9.62202 6.37415 8.0473 6.422 5.5866 7.41706C3.12591 8.41212 1.93284 9.51785 1.85828 9.82494C1.96228 9.89374 2.26643 9.93063 2.75013 9.88577Z" fill="white"/>
<path d="M13.0001 18.9081C12.8931 18.5472 11.7197 14.1392 10.9573 11.7592C10.1008 12.4263 8.87634 13.0554 7.9158 13.4483C6.95527 13.8411 5.63368 14.2309 4.55835 14.3406C5.60915 16.6049 7.76569 20.627 7.93346 20.967C8.42403 21.9491 9.98797 21.9252 11.285 21.3958C12.5154 20.8912 13.3297 19.9869 13.0001 18.9081ZM8.80766 16.6797C8.722 16.8575 8.58512 17.0046 8.4152 17.1015C8.30388 17.1593 8.18589 17.2029 8.06395 17.2311C7.96584 17.26 7.86773 17.2829 7.76961 17.3068C7.66507 17.344 7.55195 17.3486 7.44486 17.3198C7.35186 17.2953 7.26922 17.2407 7.20938 17.1643C7.16388 17.0937 7.12636 17.0181 7.09753 16.9389C6.92682 16.5551 6.75708 16.1722 6.58734 15.7843C6.50983 15.6119 6.501 15.5919 6.49708 15.5431C6.48628 15.3795 6.59519 15.2729 6.81398 15.223C6.96704 15.1861 7.12206 15.1452 7.27414 15.1034C7.57316 15.0057 7.89549 15.0106 8.1915 15.1173C8.3615 15.1786 8.51411 15.2813 8.63596 15.4164C8.72964 15.5158 8.80241 15.6335 8.84985 15.7624C8.90628 15.9098 8.93169 16.0676 8.92442 16.2256C8.91715 16.3836 8.87738 16.5383 8.80766 16.6797ZM10.7905 15.7395C10.7121 15.9426 10.5846 16.1223 10.4197 16.2619C10.3182 16.3388 10.2098 16.4055 10.0959 16.4613C9.99778 16.5052 9.91046 16.5541 9.81431 16.5949C9.66027 16.6667 9.58962 16.6797 9.51211 16.6627C9.4694 16.6568 9.42835 16.642 9.39154 16.6191C9.35474 16.5963 9.32297 16.566 9.29823 16.5301C9.25793 16.459 9.22504 16.3838 9.20011 16.3058C9.05294 15.913 8.90512 15.5218 8.75664 15.1323C8.71719 15.0534 8.69226 14.968 8.68305 14.88C8.67619 14.7075 8.78117 14.5739 8.98426 14.4812C9.12947 14.4174 9.27272 14.3476 9.41204 14.2768C9.726 14.1183 9.99385 14.0684 10.2529 14.1422C10.4091 14.1853 10.5485 14.2762 10.6522 14.4024C10.7355 14.5058 10.7981 14.6247 10.8366 14.7524C10.9315 15.0773 10.9149 15.4254 10.7896 15.7395H10.7905Z" fill="white"/>
<path d="M7.75985 15.7365C7.74684 15.7345 7.73362 15.7345 7.72061 15.7365C7.63296 15.7369 7.54579 15.7496 7.46159 15.7743C7.4417 15.7813 7.42138 15.787 7.40076 15.7913C7.51163 16.0625 7.62642 16.3327 7.74121 16.6019C7.9865 16.5301 8.04144 16.5022 8.10227 16.4234C8.13985 16.3664 8.16316 16.3009 8.17017 16.2326C8.17718 16.1643 8.16768 16.0953 8.1425 16.0316C8.10945 15.9528 8.05678 15.8842 7.98968 15.8325C7.92259 15.7807 7.84337 15.7476 7.75985 15.7365Z" fill="white"/>
<path d="M9.85165 14.88C9.83791 14.88 9.82712 14.88 9.81339 14.88C9.72926 14.8965 9.64796 14.9254 9.57203 14.9658C9.5553 14.9765 9.53755 14.9855 9.51904 14.9927C9.61716 15.2689 9.71527 15.546 9.81339 15.8212C10.044 15.7046 10.093 15.6647 10.1499 15.566C10.186 15.5002 10.2086 15.4277 10.2165 15.3529C10.2245 15.278 10.2175 15.2023 10.196 15.1303C10.172 15.0569 10.1257 14.9932 10.0639 14.9483C10.002 14.9033 9.92771 14.8794 9.85165 14.88Z" fill="white"/>
<path d="M11.337 10.5219L10.089 7.35623C9.30409 8.23364 7.59495 9.0921 6.4009 9.56969C5.20686 10.0473 3.39077 10.6136 2.23401 10.5289L3.48496 13.6905C3.75085 13.9128 5.46686 13.8421 7.73427 12.9298C10.0017 12.0175 11.2889 10.8688 11.337 10.5219Z" fill="white"/>
<path d="M8.6301 15.4244C8.50825 15.2893 8.35564 15.1866 8.18565 15.1253C7.88963 15.0186 7.56731 15.0137 7.26828 15.1113C7.11621 15.1532 6.96119 15.1941 6.80813 15.231C6.58737 15.2808 6.48043 15.3875 6.49122 15.551C6.49122 15.5999 6.50398 15.6198 6.58149 15.7923C6.75122 16.1802 6.92096 16.563 7.09168 16.9469C7.1205 17.0261 7.15802 17.1017 7.20353 17.1722C7.26336 17.2486 7.346 17.3032 7.439 17.3278C7.5461 17.3565 7.65921 17.352 7.76376 17.3148C7.86187 17.2909 7.95998 17.268 8.0581 17.2391C8.18003 17.2109 8.29802 17.1673 8.40935 17.1094C8.57926 17.0126 8.71615 16.8655 8.8018 16.6877C8.86961 16.547 8.90794 16.3935 8.91436 16.237C8.92078 16.0805 8.89514 15.9243 8.83908 15.7784C8.79407 15.6471 8.72293 15.5266 8.6301 15.4244ZM8.10225 16.4215C8.04142 16.5012 7.98648 16.5282 7.74119 16.5999C7.6264 16.3307 7.5116 16.0605 7.40074 15.7893C7.42136 15.785 7.44168 15.7794 7.46157 15.7724C7.54577 15.7477 7.63294 15.7349 7.72059 15.7345C7.7336 15.7325 7.74682 15.7325 7.75983 15.7345C7.84293 15.7453 7.92187 15.7778 7.98893 15.8288C8.05599 15.8798 8.10889 15.9476 8.14248 16.0256C8.16834 16.0899 8.17821 16.1596 8.17119 16.2287C8.16417 16.2977 8.14049 16.364 8.10225 16.4215Z" fill="#E3711C"/>
<path d="M10.6512 14.3994C10.5475 14.2731 10.4081 14.1823 10.2519 14.1392C9.99289 14.0654 9.72504 14.1152 9.41107 14.2738C9.27175 14.3446 9.12851 14.4144 8.9833 14.4782C8.77726 14.5779 8.67522 14.7075 8.68209 14.877C8.69129 14.9649 8.71623 15.0504 8.75567 15.1293C8.90481 15.5194 9.05263 15.9106 9.19915 16.3028C9.22408 16.3808 9.25696 16.456 9.29726 16.5271C9.322 16.563 9.35377 16.5933 9.39058 16.6161C9.42738 16.6389 9.46843 16.6538 9.51115 16.6597C9.58866 16.6767 9.6593 16.6597 9.81334 16.5919C9.91145 16.551 9.99976 16.5022 10.0949 16.4583C10.2089 16.4025 10.3173 16.3357 10.4187 16.2589C10.5836 16.1193 10.7112 15.9395 10.7896 15.7365C10.9152 15.4214 10.9315 15.0721 10.8357 14.7464C10.7968 14.6197 10.7342 14.5019 10.6512 14.3994ZM10.1479 15.5699C10.091 15.6697 10.0419 15.7085 9.81138 15.8252C9.71326 15.55 9.61515 15.2728 9.51704 14.9966C9.53554 14.9895 9.55329 14.9805 9.57002 14.9697C9.64595 14.9294 9.72726 14.9005 9.81138 14.884C9.82511 14.884 9.83591 14.884 9.84964 14.884C9.92585 14.8841 10.0001 14.9088 10.0616 14.9544C10.1231 15.0001 10.1688 15.0645 10.1921 15.1382C10.2133 15.2096 10.2203 15.2845 10.2127 15.3586C10.2051 15.4327 10.1831 15.5046 10.1479 15.5699Z" fill="#DF1683"/>
</g>
<defs>
<clipPath id="clip0">
<rect width="49" height="23" fill="white"/>
</clipPath>
</defs>
</svg>
