<svg width="36" height="23" viewBox="0 0 36 23" fill="none" xmlns="http://www.w3.org/2000/svg">
<path fill-rule="evenodd" clip-rule="evenodd" d="M19.8135 0.089386C20.0043 0.089386 20.2428 0.0893861 20.4336 0.113238C20.529 0.113238 20.6722 0.113237 20.7199 0.160941C20.7676 0.208644 20.863 0.566419 20.9584 0.900342C21.2684 1.759 21.5785 2.42685 21.7455 3.21395C21.7693 3.35706 21.9124 3.8818 21.984 4.02491C21.984 3.30936 22.0317 2.61766 22.0317 2.25989C22.0317 1.56819 21.984 1.59204 21.984 0.900342C21.984 0.757232 22.0078 0.280199 22.0078 0.208644C22.0078 0.137089 22.3179 0.137089 22.4849 0.137089C22.6518 0.137089 22.9619 0.137089 22.9619 0.208644C22.9619 0.280199 22.9619 0.447161 22.9619 0.566419C22.9858 1.59204 23.0573 2.95158 22.9619 3.81024C22.9142 4.6689 22.9142 5.67067 22.8665 6.62474C22.8665 6.7917 22.8665 7.05407 22.8427 7.10177C22.8188 7.14948 22.6757 7.17333 22.3895 7.12562C22.2464 7.10177 22.1271 7.17333 22.0078 7.07792C21.9601 7.03022 21.9124 6.91096 21.8647 6.76785C21.817 6.62474 21.7932 6.45778 21.7455 6.31467C21.6978 6.07615 21.507 5.38445 21.3877 5.14594C21.1492 4.6689 21.0538 4.19187 20.9584 3.90565C20.8868 3.64328 20.8153 3.33321 20.6722 3.11855C20.6006 3.71484 20.6483 5.43216 20.6483 6.24311C20.6483 6.48163 20.6722 6.72015 20.6006 6.95866C20.5767 7.12562 20.2428 7.03022 19.9566 7.10177C19.8135 7.12562 19.5988 7.10177 19.6227 7.03022C19.6227 6.95866 19.6227 6.8394 19.6227 6.72015C19.6227 5.26519 19.7896 4.00106 19.7181 2.37914C19.6942 1.87826 19.7181 1.40123 19.7419 0.995749C19.7419 0.709529 19.6942 0.327903 19.7896 0.137089C19.7658 0.113238 19.7896 0.089386 19.8135 0.089386Z" fill="#CE0E2D"/>
<path fill-rule="evenodd" clip-rule="evenodd" d="M13.4212 7.1256C13.0634 7.19715 12.7295 7.1256 12.6341 7.10175C12.5387 7.0779 12.5387 6.79168 12.5387 6.60086C12.491 5.6468 12.5864 4.62117 12.5387 3.61941C12.4671 2.47453 12.491 1.63972 12.5625 0.637949C12.5625 0.470987 12.5387 0.256322 12.5864 0.184767C12.6102 0.137064 12.8011 0.137064 12.9442 0.113212C13.4689 0.0655092 14.256 0.0178057 14.5899 0.184767C15.4963 0.566394 15.2578 2.40297 15.2101 3.64326C15.1862 4.16799 15.2101 4.54962 15.2101 5.0505C15.2101 5.52754 15.2578 6.07613 15.1385 6.3862C14.8761 7.10175 14.256 7.00634 13.4212 7.1256ZM13.8505 6.29079C13.9936 6.26694 14.1367 6.19538 14.1845 6.09998C14.3037 5.88531 14.256 5.28902 14.256 4.93125V2.40297C14.256 1.99749 14.3037 1.42505 14.2083 1.18654C14.1606 1.09113 14.0413 1.01957 13.9221 0.995723C13.8028 0.924168 13.6597 0.924169 13.5643 0.971872C13.5405 1.06728 13.5166 1.21039 13.5166 1.37735C13.5166 1.66357 13.4689 2.23601 13.4928 2.49838C13.5405 3.28548 13.5166 4.2157 13.5643 5.02665C13.612 5.7422 13.5166 6.19538 13.5166 6.21924C13.5405 6.33849 13.7551 6.31464 13.8505 6.29079Z" fill="#CE0E2D"/>
<path fill-rule="evenodd" clip-rule="evenodd" d="M18.2392 0.208634C18.8355 0.471002 18.8594 0.709518 18.9071 2.30758C18.9309 3.02313 18.8355 3.59557 18.8355 4.09645C18.8355 4.57349 18.4777 5.456 17.5714 5.47985C17.4044 5.47985 16.9274 5.38444 16.7843 5.28904C16.4026 5.00282 16.1641 4.47808 16.0926 3.83408C16.0449 3.3809 16.1164 3.35705 16.1164 2.76076C16.1164 1.97366 16.0687 1.59203 16.2357 1.04344C16.3788 0.637964 16.7127 0.184782 17.0705 0.0655239C17.4521 -0.101438 18.0007 0.0893757 18.2392 0.208634ZM17.8814 4.31112C18.0007 4.0249 17.9053 3.35705 17.9053 3.09468V2.35528C17.9053 1.97366 17.953 1.35351 17.8576 1.18655C17.786 1.04344 17.476 0.948035 17.2852 1.01959C17.0943 1.115 17.0943 1.73514 17.0943 2.16447C17.0705 3.16624 17.0705 2.09291 17.0705 3.07083C17.0705 3.76253 16.9274 4.64504 17.5475 4.52578C17.6668 4.50193 17.8337 4.43038 17.8814 4.31112Z" fill="#CE0E2D"/>
<path fill-rule="evenodd" clip-rule="evenodd" d="M16.1401 7.00634C16.1401 7.05404 16.3787 7.07789 16.7364 7.05404C17.0942 7.05404 18.1198 7.10174 18.1198 7.10174C18.1198 7.10174 18.7161 7.1733 18.7638 7.12559C18.8831 7.00634 18.7877 6.81552 18.8354 6.57701C18.9069 6.17153 18.8354 5.93301 18.8115 5.86146C18.7877 5.81375 18.573 5.86146 18.096 5.95686C17.6189 6.07612 16.1401 6.07612 16.1401 6.31464C16.1401 6.45775 16.1401 6.95863 16.1401 7.00634Z" fill="#CE0E2D"/>
<path fill-rule="evenodd" clip-rule="evenodd" d="M10.5589 8.81906C10.5589 8.89062 10.6544 9.74928 10.5351 11.1804C10.4635 12.0629 10.5351 14.8297 10.5112 15.9984C10.869 16.07 12.634 16.0461 13.5643 16.0461C13.8505 16.0461 14.089 16.0223 14.1844 16.0461C14.2798 16.0938 14.2798 16.2608 14.256 16.6663C14.2321 17.024 14.3037 17.3341 14.2082 17.3341C14.0651 17.358 13.8028 17.3341 13.5404 17.3341C13.0395 17.3341 12.5863 17.2387 11.5846 17.2864C10.6305 17.3341 10.5112 17.2864 10.0581 17.2864C9.77184 17.2864 9.48562 17.3103 9.41407 17.2864C9.31866 17.2387 9.29481 16.6186 9.27096 16.2608C9.22325 15.2113 9.27096 14.138 9.27096 13.0647C9.27096 11.6097 9.27096 8.98603 9.27096 8.77136C9.22325 8.58055 10.5589 8.69981 10.5589 8.81906Z" fill="#CE0E2D"/>
<path fill-rule="evenodd" clip-rule="evenodd" d="M18.3107 10.7749C18.3107 10.9896 18.3107 11.3474 18.2391 11.3951C18.1675 11.4428 17.9529 11.4428 17.7382 11.4189C17.4997 11.3951 17.285 11.4428 17.2135 11.4189C17.1658 11.3951 17.2373 10.9419 17.2612 10.6318C17.285 10.2263 17.2135 9.91626 16.975 9.84471C16.0686 9.72545 16.2117 10.7272 16.4025 11.2997C16.5933 11.8005 17.1658 12.2776 17.619 12.85C18.0244 13.3509 18.5015 14.0426 18.5969 14.615C18.7877 15.7838 18.5015 16.8809 17.7144 17.2387C16.808 17.6442 15.8301 17.3341 15.4723 16.8094C15.1384 16.3562 14.9953 15.593 15.1145 15.1636C15.2338 14.6866 15.0907 14.4719 15.2099 14.2811C15.2338 14.2334 15.5916 14.2573 15.7824 14.2573C15.9732 14.2573 16.331 14.2334 16.331 14.3288C16.331 14.4242 16.331 14.6389 16.331 14.8536C16.3071 15.5691 16.2833 16.4278 17.0704 16.2369C17.6428 16.0938 17.4281 14.8536 17.2612 14.4958C17.0465 14.0426 16.4979 13.661 16.0925 13.1362C15.7108 12.6353 15.1622 11.8244 15.0907 11.0611C15.043 10.5603 15.1622 10.0355 15.2576 9.72545C15.3531 9.41538 15.5439 9.03375 15.8301 8.81909C16.164 8.58057 16.6887 8.53287 17.4758 8.74753C18.1437 8.93834 18.3345 9.77315 18.3107 10.7749Z" fill="#CE0E2D"/>
<path fill-rule="evenodd" clip-rule="evenodd" d="M26.1579 12.9216C26.4202 13.0408 26.6826 13.1601 26.8019 13.4702C27.1119 14.1619 26.8734 15.593 26.9688 16.5709C26.9927 16.9287 27.0881 17.1672 27.1358 17.2626C27.1835 17.358 26.945 17.3341 26.5157 17.2864C26.2056 17.2626 25.9909 17.3341 25.8717 17.3103C25.8001 17.2864 25.7285 16.9525 25.7047 16.7378C25.6331 16.07 25.657 15.1875 25.6331 14.4958C25.6093 13.8518 25.6093 13.5179 25.0846 13.3032C25.013 13.2794 24.7983 13.2078 24.7983 13.3509C24.7983 13.4225 24.7983 13.494 24.7983 13.6133C24.7983 14.1142 24.7983 14.4958 24.7506 15.0205C24.7029 15.5691 24.7983 16.1893 24.7983 16.7378C24.7983 16.9287 24.7983 17.2149 24.7983 17.3103C24.7983 17.3818 24.4644 17.3103 24.0828 17.358C23.7012 17.4057 23.5342 17.358 23.5342 17.2864C23.5342 17.191 23.5342 16.9764 23.5103 16.8094C23.4865 16.0938 23.5819 15.0205 23.5103 13.9233C23.4626 12.8023 23.5103 11.5143 23.558 10.7511C23.5819 10.1309 23.4626 9.58235 23.4626 9.08146C23.4626 9.00991 23.4388 8.77139 23.558 8.77139C24.0351 8.77139 24.4883 8.77139 24.9176 8.77139C25.8717 8.79524 26.4441 8.8668 26.7303 9.5585C27.0404 10.2502 27.0165 11.6574 26.7303 12.2776C26.6349 12.4922 26.3725 12.7546 26.1579 12.9216ZM25.4423 9.94012C25.3231 9.86857 25.18 9.82087 25.0607 9.82087C24.9653 9.82087 24.8699 9.86857 24.8222 9.96398C24.8222 10.1071 24.8222 10.2502 24.8222 10.3933C24.8222 11.0134 24.7983 11.5859 24.8222 12.1583C24.8222 12.2537 24.7983 12.4684 24.8937 12.4923C24.9653 12.5161 25.0846 12.4923 25.1561 12.4684C25.2992 12.4207 25.49 12.373 25.5616 12.3014C25.6093 12.2299 25.6331 11.9914 25.657 11.8244C25.7047 11.3712 25.7524 11.0612 25.7047 10.4649C25.7047 10.3695 25.657 10.1548 25.6331 10.1071C25.5616 10.0117 25.5377 9.98783 25.4423 9.94012Z" fill="#CE0E2D"/>
<path fill-rule="evenodd" clip-rule="evenodd" d="M12.3717 9.8924C12.3479 10.3694 12.324 10.7272 12.324 11.1088C12.3002 11.6574 12.324 12.1106 12.324 12.683C12.324 13.0408 12.3002 13.3747 12.3002 13.8041C12.0855 13.8041 11.5846 13.8041 11.5608 13.8756C11.5369 13.9472 11.4892 14.9251 11.5846 14.949C11.7754 14.9967 12.1571 14.9728 12.5387 14.9967C13.0396 15.0205 14.1844 15.1159 14.1844 15.0205C14.2083 14.9251 14.2083 14.3288 14.2322 13.971C14.2083 13.8995 14.1844 13.8518 14.089 13.8518C14.0175 13.8279 13.6359 13.8518 13.4689 13.8518C13.4689 13.3032 13.5405 12.6115 13.5405 11.9913C13.5643 11.3474 13.5405 10.7272 13.5166 9.94011C13.6836 9.91625 14.1844 9.91626 14.2083 9.8447C14.2083 9.82085 14.2083 9.60618 14.2322 9.36767C14.256 9.12915 14.2083 8.89063 14.1844 8.84293C14.1367 8.77138 13.7313 8.74752 13.3735 8.74752C12.8726 8.72367 12.5625 8.79523 12.2525 8.77138C12.0616 8.77138 11.6085 8.72367 11.5608 8.77138C11.5369 8.84293 11.5131 9.03374 11.5131 9.17685C11.5131 9.36767 11.5369 9.53463 11.5369 9.72544C11.5608 9.797 11.5369 9.86855 11.6085 9.86855C11.68 9.8924 12.1571 9.86855 12.3717 9.8924Z" fill="#CE0E2D"/>
<path fill-rule="evenodd" clip-rule="evenodd" d="M8.29304 16.6424C8.34075 16.07 8.19763 15.7837 8.26919 14.7343C8.26919 14.6627 8.19764 14.6389 8.12608 14.615C7.76831 14.6389 7.17201 14.5673 7.12431 14.6627C7.07661 14.7581 7.07661 15.8076 7.14816 16.2369C6.88579 16.2369 6.62343 16.2369 6.40876 16.1892C6.40876 15.3067 6.33721 14.5434 6.38491 13.7563C6.38491 13.6609 6.38491 13.4701 6.43261 13.4463C6.48032 13.4463 6.57572 13.4463 6.64728 13.4463C6.95735 13.4463 7.33898 13.4701 7.43438 13.4463C7.52979 13.4224 7.52979 12.4445 7.43438 12.3729C7.36283 12.3252 6.9812 12.3491 6.64728 12.3729C6.55187 12.3729 6.40876 12.4207 6.38491 12.3491C6.38491 12.2775 6.33721 12.039 6.33721 11.729C6.36106 11.4189 6.33721 10.0832 6.36106 9.96393C6.38491 9.86853 6.48032 9.89238 6.76654 9.89238H7.12431C7.07661 10.3217 7.0289 10.6318 7.12431 11.4427C7.43438 11.4904 7.76831 11.4666 8.12608 11.4904C8.19764 11.4666 8.24534 11.4666 8.26919 11.4189C8.19763 10.441 8.34074 10.1786 8.31689 9.60616C8.31689 9.39149 8.29304 8.8429 8.22149 8.81905C8.12608 8.77135 7.79216 8.77135 7.41053 8.7952C6.67113 8.81905 6.02714 8.77135 5.31159 8.7475C5.26388 8.77135 5.16848 8.7475 5.16848 8.91446C5.16848 8.98601 5.02537 9.72541 5.14462 10.8703C5.28773 12.0867 5.09692 13.9949 5.12077 15.3783C5.14462 16.0461 5.14462 17.3102 5.33544 17.3579C5.5501 17.4056 6.09869 17.3102 6.79039 17.3818C7.45823 17.4772 8.10223 17.3818 8.17378 17.3341C8.26919 17.2625 8.26919 16.8094 8.29304 16.6424Z" fill="#CE0E2D"/>
<path fill-rule="evenodd" clip-rule="evenodd" d="M29.6164 16.07C29.6641 13.8518 29.7118 12.1583 29.6641 10.0117C29.7595 10.0117 29.8788 10.0117 29.9981 9.98782C30.1173 9.98782 30.3081 9.98782 30.3797 9.91627C30.4512 9.84471 30.4035 9.67775 30.4035 9.53464C30.4035 9.39153 30.4035 9.27227 30.4035 9.15302C30.4035 9.00991 30.4035 8.81909 30.332 8.79524C30.2604 8.77139 29.3541 8.74754 29.0201 8.79524C28.7101 8.84295 28.4238 8.81909 28.2092 8.81909C27.9707 8.79524 27.923 8.79524 27.8037 8.79524C27.6844 8.79524 27.7083 9.03376 27.7083 9.17687C27.7083 9.39153 27.7083 9.63005 27.6844 9.84471C27.6844 9.91627 27.756 9.96397 27.8753 9.98782C27.9707 10.0117 28.233 9.96397 28.4 9.96397C28.4238 12.1583 28.2807 13.971 28.3761 16.1177C28.2807 16.1177 28.1138 16.1177 27.9945 16.1416C27.8753 16.1654 27.756 16.1415 27.7322 16.237C27.7083 16.3324 27.7322 16.5232 27.7083 16.6901C27.7083 16.9048 27.7083 17.1195 27.7322 17.2864C27.7083 17.3818 28.0899 17.3818 28.7816 17.3818C29.0678 17.3818 29.521 17.358 29.8549 17.358C30.0219 17.358 30.2366 17.3818 30.3081 17.3341C30.3797 17.3103 30.3558 17.0718 30.3558 16.9287C30.3558 16.714 30.3558 16.5232 30.3797 16.3085C30.3558 16.237 30.3797 16.1654 30.2127 16.1654C30.0935 16.1177 29.8072 16.07 29.6164 16.07Z" fill="#CE0E2D"/>
<path fill-rule="evenodd" clip-rule="evenodd" d="M35.484 13.2793C35.5078 13.1839 34.6253 12.4207 34.4345 12.2775C34.4345 10.2263 34.3868 8.34202 32.431 8.62824C31.8585 8.6998 31.6677 8.96217 31.4053 9.46305C31.2622 9.72542 31.0953 10.0832 31.0237 10.3456C30.9044 10.8942 30.976 11.8721 30.976 12.8023C30.976 13.7325 30.9283 14.7104 30.976 15.3783C31.0476 16.3085 31.3815 17.0717 31.7631 17.2387C32.1447 17.4057 32.741 17.5488 33.2181 17.2625C33.5758 17.0479 34.1721 16.7378 34.2198 16.07C34.2675 15.4021 34.4106 14.8058 34.4106 14.0426C34.4583 14.0664 35.4601 13.4224 35.484 13.2793ZM33.2419 12.8023C33.2896 13.9472 33.2419 14.3288 33.2181 15.0205C33.1942 15.426 33.2419 16.1177 32.8603 16.2369C32.6218 16.3085 32.3594 16.2131 32.2401 16.0461C32.1447 15.8791 32.0255 13.4463 32.1924 11.3473C32.2401 10.8464 32.097 10.0355 32.3832 9.89238C32.4787 9.74927 32.9557 9.77312 33.0272 9.89238C33.2896 10.441 33.1942 11.8005 33.2419 12.8023Z" fill="#CE0E2D"/>
<path fill-rule="evenodd" clip-rule="evenodd" d="M4.14286 13.4702C3.90434 12.9454 3.64197 12.9931 3.47501 12.7785C3.59427 12.5638 3.78508 12.5638 3.99975 12.0391C4.11901 11.729 4.21441 11.1804 4.14286 10.7034C4.0713 10.2264 4.0713 9.74932 3.95204 9.5108C3.57042 8.58059 2.47324 8.69985 1.06599 8.7237C0.994439 8.74755 0.970588 8.79525 0.970588 8.86681C0.970588 9.48695 0.899033 9.5108 0.946736 10.2264C0.994439 10.8226 0.970588 11.6097 0.970588 12.1106L0.493555 12.4684C0.493555 12.4684 0.111928 12.7546 0.0403731 12.8262C-0.0550335 12.8977 -0.00732996 13.017 0.469703 13.4225C0.684368 13.5656 0.779774 13.7564 0.994439 13.8518C0.946736 14.9728 1.04214 15.8792 1.04214 16.547C1.04214 16.8333 1.08985 17.191 1.08985 17.2864C1.08985 17.3818 1.28066 17.3818 1.47147 17.3818C2.23473 17.3341 2.97413 17.4296 3.2842 17.3818C3.40346 17.358 3.61812 17.2626 3.73738 17.1433C4.04745 16.881 4.21441 16.2847 4.33367 15.6168C4.52448 14.8059 4.40523 14.0188 4.14286 13.4702ZM2.21087 9.86858C2.28243 9.79702 2.85487 9.72547 2.92642 10.1071C2.95027 10.2264 3.04568 11.4189 2.92642 12.0391C2.83102 12.206 2.49709 12.3491 2.28243 12.2776C2.16317 12.2299 2.21087 12.206 2.21087 11.8721C2.21087 11.562 2.16317 11.2043 2.18702 10.7988C2.21087 10.2979 2.18702 10.1309 2.21087 9.86858ZM3.11724 16.0223C2.95028 16.2847 2.33013 16.4039 2.28243 16.2608C2.21087 16.07 2.25858 14.3288 2.23473 13.3986C2.44939 13.1124 2.95027 13.3032 3.06953 13.4463C3.23649 13.661 3.21264 14.2096 3.2842 14.7105C3.3319 15.2591 3.18879 15.8315 3.11724 16.0223Z" fill="#CE0E2D"/>
<path fill-rule="evenodd" clip-rule="evenodd" d="M22.7471 16.714C22.3655 13.6133 22.0792 11.8244 22.0792 11.3951C22.0554 10.5364 21.8884 9.96395 21.7692 9.10529C21.7453 8.98604 21.7215 8.84293 21.7215 8.77137C21.7215 8.72367 21.3875 8.72367 21.2206 8.72367C20.5289 8.77137 20.3142 8.69982 19.9564 8.67596C19.8372 8.67596 19.551 8.67596 19.551 8.77137C19.551 8.86678 19.551 9.08144 19.551 9.22455C19.551 9.46307 19.5033 9.60618 19.5033 9.8447C19.5271 9.91625 19.5271 9.9878 19.5987 10.0117C19.6702 10.0355 19.9087 10.0594 20.0518 10.0594C19.7418 12.2776 19.4555 14.4481 19.217 16.7378C19.1932 16.9286 19.0978 17.2864 19.1932 17.3103C19.2647 17.3341 19.4317 17.3341 19.5748 17.3341C19.8372 17.3103 19.9326 17.3341 20.0757 17.2626C20.3142 16.9048 20.1234 16.1654 20.3619 15.8076C20.7435 15.8076 21.149 15.8076 21.4352 15.903C21.5306 16.1654 21.5306 16.4993 21.5545 16.8094C21.5783 16.9763 21.6022 17.3103 21.6976 17.3103C21.8884 17.3341 22.0554 17.3103 22.2462 17.3103C22.4609 17.3103 22.7471 17.2864 22.7709 17.2387C22.8425 17.2149 22.7709 16.8809 22.7471 16.714ZM20.4573 14.7581C20.5289 13.6133 20.6958 12.5638 20.8389 11.4905C20.8866 11.4905 20.8866 11.5143 20.8866 11.5382C21.2206 12.4207 21.1252 13.7564 21.2921 14.8058C21.0536 14.9012 20.6958 14.8058 20.4573 14.7581Z" fill="#CE0E2D"/>
<path d="M5.74095 22.3191H5.38318V20.0294H5.93177C6.21799 20.0294 6.3611 20.1725 6.3611 20.4587V21.055C6.3611 21.3412 6.21799 21.4843 5.93177 21.4843H5.74095V22.3191ZM5.88406 20.3633H5.74095V21.1981H5.88406C5.97947 21.1981 6.00332 21.1504 6.00332 21.055V20.4826C6.00332 20.411 5.95562 20.3633 5.88406 20.3633Z" fill="#CE0E2D"/>
<path d="M7.57742 22.343H7.3866C7.10039 22.343 6.95728 22.1998 6.95728 21.9136V20.4348C6.95728 20.1486 7.10039 20.0055 7.3866 20.0055H7.57742C7.86364 20.0055 8.00675 20.1486 8.00675 20.4348V21.9136C7.9829 22.1998 7.86364 22.343 7.57742 22.343ZM7.50586 20.3394H7.43431C7.3389 20.3394 7.2912 20.3871 7.2912 20.4825V21.9136C7.2912 22.009 7.3389 22.0567 7.43431 22.0567H7.50586C7.60127 22.0567 7.62512 22.009 7.62512 21.9136V20.4825C7.64897 20.3871 7.60127 20.3394 7.50586 20.3394Z" fill="#CE0E2D"/>
<path d="M9.03246 20.0532V22.009H9.41408V22.3191H8.67468V20.0294H9.03246V20.0532Z" fill="#CE0E2D"/>
<path d="M10.4159 20.0546V22.0104H10.7975V22.3205H10.0581V20.0307H10.4159V20.0546Z" fill="#CE0E2D"/>
<path d="M12.0377 22.343H11.8469C11.5607 22.343 11.4176 22.1998 11.4176 21.9136V20.4348C11.4176 20.1486 11.5607 20.0055 11.8469 20.0055H12.0377C12.324 20.0055 12.4671 20.1486 12.4671 20.4348V21.9136C12.4671 22.1998 12.324 22.343 12.0377 22.343ZM11.99 20.3394H11.9185C11.8231 20.3394 11.7754 20.3871 11.7754 20.4825V21.9136C11.7754 22.009 11.8231 22.0567 11.9185 22.0567H11.99C12.0854 22.0567 12.1093 22.009 12.1093 21.9136V20.4825C12.1093 20.3871 12.0854 20.3394 11.99 20.3394Z" fill="#CE0E2D"/>
<path d="M14.1605 21.5558V21.9375C14.1605 22.2237 14.0173 22.3668 13.7311 22.3668H13.588C13.3018 22.3668 13.1587 22.2237 13.1587 21.9375V21.4604H13.4926V21.9375C13.4926 22.0329 13.5403 22.0567 13.6357 22.0567H13.6834C13.7788 22.0567 13.8265 22.009 13.8265 21.9375V21.6274C13.8265 21.532 13.8027 21.4843 13.7311 21.4366L13.3734 21.1742C13.2302 21.055 13.1825 20.9596 13.1825 20.7926V20.4825C13.1825 20.1963 13.3257 20.0532 13.6119 20.0532H13.755C14.0412 20.0532 14.1843 20.1963 14.1843 20.4825V20.888H13.8027V20.4825C13.8027 20.3871 13.755 20.3633 13.6596 20.3633H13.6119C13.5165 20.3633 13.4926 20.411 13.4926 20.4825V20.7449C13.4926 20.8403 13.5165 20.888 13.588 20.9357L13.9458 21.1981C14.1128 21.2696 14.1605 21.365 14.1605 21.5558Z" fill="#CE0E2D"/>
<path d="M16.8318 22.3191H16.4979L16.4502 21.9613H16.0924L16.0447 22.3191H15.7108L16.0447 20.0294H16.4979L16.8318 22.3191ZM16.1163 21.6513H16.4025L16.2594 20.5064L16.1163 21.6513Z" fill="#CE0E2D"/>
<path d="M18.74 20.0532V22.009H19.1216V22.3191H18.3822V20.0294H18.74V20.0532Z" fill="#CE0E2D"/>
<path d="M20.8391 22.3191H20.4813L20.4336 21.9614H20.0758L20.0281 22.3191H19.6942L20.0281 20.0294H20.4813L20.8391 22.3191ZM20.1235 21.6513H20.4098L20.2667 20.5064L20.1235 21.6513Z" fill="#CE0E2D"/>
<path d="M23.3196 21.4853V21.9146C23.3196 22.2008 23.1765 22.3439 22.8903 22.3439H22.3179V20.0542H22.8903C23.1765 20.0542 23.3196 20.1973 23.3196 20.4835V20.8174C23.3196 21.0321 23.2481 21.1275 23.1288 21.1752C23.2481 21.199 23.3196 21.2945 23.3196 21.4853ZM22.8426 20.3642H22.6756V21.0321H22.8188C22.9142 21.0321 22.9619 20.9844 22.9619 20.889V20.4835C22.9619 20.4119 22.938 20.3642 22.8426 20.3642ZM22.6756 22.0339H22.8426C22.938 22.0339 22.9857 21.9862 22.9857 21.8907V21.4614C22.9857 21.366 22.938 21.3183 22.8426 21.3183H22.6756V22.0339Z" fill="#CE0E2D"/>
<path d="M25.037 21.5559V22.3191H24.6792V21.5559C24.6792 21.4605 24.6315 21.4128 24.5361 21.4128H24.3691V22.3191H24.0114V20.0294H24.5838C24.87 20.0294 25.0131 20.1725 25.0131 20.4587V20.888C25.0131 21.1027 24.9416 21.1981 24.8223 21.2458C24.9654 21.2935 25.037 21.3889 25.037 21.5559ZM24.5361 20.3633H24.3691V21.1266H24.5361C24.6315 21.1266 24.6792 21.0789 24.6792 20.9835V20.5064C24.6792 20.411 24.6315 20.3633 24.5361 20.3633Z" fill="#CE0E2D"/>
<path d="M26.7781 22.3191H26.4442L26.3965 21.9614H26.0387L25.991 22.3191H25.6571L25.991 20.0294H26.4442L26.7781 22.3191ZM26.0626 21.6513H26.3488L26.2057 20.5064L26.0626 21.6513Z" fill="#CE0E2D"/>
<path d="M28.4 21.5559V21.9375C28.4 22.2237 28.2569 22.3668 27.9706 22.3668H27.8275C27.5413 22.3668 27.3982 22.2237 27.3982 21.9375V21.4605H27.7321V21.9375C27.7321 22.0329 27.7798 22.0568 27.8752 22.0568H27.9229C28.0183 22.0568 28.066 22.0091 28.066 21.9375V21.6274C28.066 21.532 28.0422 21.4843 27.9706 21.4366L27.6129 21.1743C27.4459 21.055 27.3982 20.9596 27.3982 20.7926V20.4826C27.3982 20.1963 27.5413 20.0532 27.8275 20.0532H27.9706C28.2569 20.0532 28.4 20.1963 28.4 20.4826V20.888H28.066V20.4826C28.066 20.3871 28.0183 20.3633 27.9229 20.3633H27.8752C27.7798 20.3633 27.756 20.411 27.756 20.4826V20.7449C27.756 20.8403 27.7798 20.888 27.8514 20.9357L28.2091 21.1981C28.3523 21.2697 28.4 21.3651 28.4 21.5559Z" fill="#CE0E2D"/>
<path d="M30.1412 22.3191H29.7834L29.7357 21.9614H29.378L29.3303 22.3191H28.9963L29.3303 20.0294H29.7834L30.1412 22.3191ZM29.4257 21.6513H29.7119L29.5688 20.5064L29.4257 21.6513Z" fill="#CE0E2D"/>
</svg>
