<svg width="43" height="15" viewBox="0 0 43 15" fill="none" xmlns="http://www.w3.org/2000/svg">
<path d="M36.0161 14.0486L26.6663 14.8596L26.9763 13.4046L36.3262 12.5698L36.0161 14.0486Z" fill="#FBBA00"/>
<path d="M41.1918 3.64935C41.4065 3.62549 41.9312 3.6732 42.1697 3.88786L42.6706 1.52655C42.1936 1.455 41.4542 1.45499 40.9771 1.5027C38.6397 1.71736 37.8287 3.53009 37.5902 4.29334C37.137 2.86224 35.7775 1.97973 34.0125 2.12284C31.4603 2.33751 28.8605 4.62726 28.2881 7.20324C28.2642 7.29865 28.2404 7.39406 28.2404 7.48946C28.0018 7.10784 27.5964 6.86932 27.0001 6.79776C27.4055 6.84547 28.4789 6.10607 28.4073 4.67497C28.3596 3.48239 27.3578 2.95765 25.5928 3.12461L23.2792 3.31542L21.8958 9.85078L20.8463 3.38698L17.531 7.41791L15.6228 3.93557L12.6891 10.6379L9.18289 10.948L9.4214 9.85078L12.1882 9.61226L12.5937 7.68028L9.82688 7.91879L10.0654 6.82162L13.5239 6.51154L14.0248 4.17408L8.22882 4.67497L7.06009 10.2324C7.03624 9.32604 6.53535 8.8013 5.60514 8.7059C6.01062 8.7536 7.08394 8.0142 7.01238 6.5831C6.96468 5.39052 5.96291 4.86578 4.19789 5.03274L1.88428 5.22356L0 14.0725L3.31538 13.7863C5.15196 13.6193 6.29684 12.4745 6.75002 11.5919L6.34454 13.5001L14.144 12.8084L15.8613 8.92056L17.2447 11.4011L19.3675 8.82516L19.7969 12.3075L24.7103 11.8782C26.857 11.6874 28.0495 10.1608 28.3119 9.27834C28.7412 10.7571 30.1246 11.6635 31.9135 11.4965C34.4418 11.2819 37.0416 9.01597 37.6141 6.41614C37.6379 6.32073 37.6618 6.22533 37.6618 6.10607C38.1865 6.94088 39.2598 7.17939 39.0929 7.89494C38.9975 8.32427 38.6397 8.61049 38.2103 8.63434C37.9957 8.65819 37.6856 8.65819 37.1609 8.53894L36.6838 10.8048C36.6838 10.8048 37.781 11.0434 38.8066 10.8525C40.3093 10.5902 41.7642 9.80307 41.9074 7.65642C42.0982 5.29511 39.88 5.50978 40.1185 4.43645C40.2616 3.91172 40.6909 3.69705 41.1918 3.64935ZM4.36485 10.9241C4.2933 11.2342 4.03093 11.7589 3.31538 11.8305L2.71909 11.8782L3.05301 10.2801L3.57775 10.2324C3.95937 10.2085 4.50796 10.2801 4.36485 10.9241ZM4.91344 7.51332C4.74648 8.20501 4.10249 8.27657 3.84012 8.30042L3.45849 8.32427L3.76856 6.91702L4.17404 6.89317C4.43641 6.86932 5.0804 6.84547 4.91344 7.51332ZM25.7836 9.03982C25.7121 9.34989 25.4497 9.87463 24.7342 9.94618L24.1379 9.99389L24.4718 8.39583L24.9965 8.34812C25.3543 8.32427 25.9267 8.39582 25.7836 9.03982ZM26.3322 5.65289C26.1653 6.34458 25.5213 6.41614 25.2589 6.43999L24.8773 6.46384L25.1635 5.05659L25.569 5.03274C25.8552 5.00889 26.4992 4.96119 26.3322 5.65289ZM35.2289 6.60695C34.9665 7.84724 33.7024 8.99212 32.4382 9.11137C31.198 9.23063 30.387 8.27657 30.6732 6.98858C30.9594 5.70059 32.2236 4.57956 33.4639 4.48415C34.728 4.38875 35.5151 5.39052 35.2289 6.60695Z" fill="#26358C"/>
<path d="M27.978 1.4788L18.6282 2.28976L18.9382 0.810957L28.2881 0L27.978 1.4788Z" fill="#E30613"/>
</svg>
