<svg width="54" height="14" viewBox="0 0 54 14" fill="none" xmlns="http://www.w3.org/2000/svg">
<path d="M17.9178 12.1725C17.5416 12.0436 17.413 11.9993 17.413 11.8772C17.413 11.7619 17.5249 11.687 17.7011 11.687C17.9111 11.687 18.0401 11.8159 18.108 12.0267L18.5118 11.7178C18.3864 11.4188 18.1796 11.1844 17.7019 11.1844C17.2885 11.1844 16.8649 11.4257 16.8649 11.8875C16.8649 12.3123 17.1053 12.4611 17.6614 12.648C17.9357 12.7397 18.0474 12.8315 18.0474 12.9468C18.0474 13.0417 17.9561 13.1197 17.7968 13.1197C17.5154 13.1197 17.3187 12.9175 17.2206 12.7294L16.8071 13.0453C16.9735 13.4118 17.3187 13.6291 17.746 13.6291C18.2543 13.6291 18.6101 13.3307 18.6101 12.8993C18.6091 12.5155 18.436 12.3491 17.9178 12.1725Z" fill="#EF7B00"/>
<path d="M16.1654 11.215H15.6154V13.5985H16.1654V11.215Z" fill="#EF7B00"/>
<path d="M8.4837 11.215H7.94519V13.5985H9.56479V13.0877H8.4837V11.215Z" fill="#EF7B00"/>
<path d="M11.1234 11.1844C10.4644 11.1844 9.99268 11.6287 9.99268 12.4053C9.99268 13.1819 10.4644 13.6291 11.1234 13.6291C11.7825 13.6291 12.254 13.1847 12.254 12.4053C12.254 11.6259 11.7831 11.1844 11.1234 11.1844ZM11.1234 13.1205C10.7735 13.1205 10.557 12.8696 10.557 12.4083C10.557 11.947 10.7743 11.693 11.1234 11.693C11.4726 11.693 11.6898 11.944 11.6898 12.4083C11.6898 12.8727 11.4728 13.1205 11.1234 13.1205Z" fill="#EF7B00"/>
<path d="M19.7714 11.215H19.2213V13.5985H19.7714V11.215Z" fill="#EF7B00"/>
<path d="M14.339 12.5279C14.339 12.9735 14.1705 13.1192 13.8886 13.1192C13.5895 13.1192 13.4382 12.9731 13.4382 12.5317V11.215H12.8956V12.6192C12.8956 13.3264 13.2979 13.6291 13.889 13.6291C14.48 13.6291 14.8819 13.3264 14.8819 12.6192V11.215H14.339V12.5279Z" fill="#EF7B00"/>
<path d="M38.9507 12.114H38.1177V11.215H37.5869V13.5985H38.1177V12.6248H38.9507V13.5985H39.4815V11.215H38.9507V12.114Z" fill="#EF7B00"/>
<path d="M36.0554 13.1204C35.7398 13.1204 35.5228 12.8728 35.5228 12.4108C35.5228 11.9488 35.7398 11.6943 36.0554 11.6943C36.2931 11.6943 36.4256 11.8474 36.4529 12.1458L36.962 12.0339C36.9078 11.4878 36.6361 11.1844 36.0554 11.1844C35.4409 11.1844 34.9589 11.6294 34.9589 12.4071C34.9589 13.1849 35.4409 13.6291 36.0554 13.6291C36.6056 13.6291 36.911 13.3439 37.0368 12.8244L36.5206 12.7126C36.4426 12.9678 36.3169 13.1204 36.0554 13.1204Z" fill="#EF7B00"/>
<path d="M31.1528 11.215H30.5112L29.8058 12.1037V11.215H29.275V13.5985H29.8058V12.8697L30.004 12.6281L30.528 13.5985H31.1696L30.3869 12.1548L31.1528 11.215Z" fill="#EF7B00"/>
<path d="M26.3753 11.215L25.5774 13.5985H26.1209L26.2871 13.0743H27.0679L27.2343 13.5985H27.7776L26.9799 11.215H26.3753ZM26.4398 12.5804L26.6775 11.8278L26.9152 12.5804H26.4398Z" fill="#EF7B00"/>
<path d="M32.2391 11.215H31.6891V13.5985H32.2391V11.215Z" fill="#EF7B00"/>
<path d="M24.4899 12.7642L23.6636 11.215H23.0411V13.5985H23.5785V12.1548L24.405 13.5985H25.0274V11.215H24.4899V12.7642Z" fill="#EF7B00"/>
<path d="M21.1084 11.215L20.3214 13.5985H20.8572L21.0212 13.0743H21.7913L21.9552 13.5985H22.4911L21.7043 11.215H21.1084ZM21.1718 12.5804L21.4062 11.8278L21.6406 12.5804H21.1718Z" fill="#EF7B00"/>
<path d="M40.7766 12.6382H41.7308V12.1274H40.7766V11.7256H41.8453V11.215H40.2455V13.5985H41.8651V13.0877H40.7766V12.6382Z" fill="#EF7B00"/>
<path d="M43.9557 12.7642L43.1294 11.215H42.5068V13.5985H43.0442V12.1548L43.8708 13.5985H44.4931V11.215H43.9557V12.7642Z" fill="#EF7B00"/>
<path d="M32.7892 11.7256H33.4259V13.5985H33.9554V11.7256H34.5921V11.215H32.7892V11.7256Z" fill="#EF7B00"/>
<path d="M52.6958 7.33407C52.5961 7.33451 52.4988 7.3645 52.4161 7.42025C52.3335 7.476 52.2692 7.55501 52.2314 7.64729C52.1937 7.73956 52.1841 7.84096 52.2039 7.93867C52.2238 8.03638 52.2722 8.126 52.343 8.19622C52.4137 8.26644 52.5038 8.3141 52.6016 8.33317C52.6995 8.35224 52.8008 8.34186 52.8928 8.30336C52.9848 8.26485 53.0633 8.19994 53.1183 8.11683C53.1734 8.03372 53.2026 7.93615 53.2023 7.83645C53.2024 7.77011 53.1893 7.70441 53.1638 7.64316C53.1383 7.58191 53.101 7.52631 53.0539 7.47959C53.0068 7.43287 52.9509 7.39595 52.8894 7.37097C52.828 7.34599 52.7622 7.33345 52.6958 7.33407ZM52.6958 8.26773C52.459 8.26773 52.2795 8.08257 52.2795 7.83645C52.2795 7.59336 52.459 7.40882 52.6958 7.40882C52.9288 7.40882 53.1097 7.59376 53.1097 7.83645C53.1097 8.08176 52.9298 8.26773 52.6958 8.26773Z" fill="#EF7B00"/>
<path d="M52.9252 7.71977C52.9252 7.59228 52.841 7.54794 52.692 7.54794H52.4689V8.12855H52.5847V7.87972H52.6597L52.8056 8.12855H52.9272L52.7684 7.87477C52.8565 7.86705 52.9252 7.82667 52.9252 7.71977ZM52.5843 7.79084V7.63782H52.6845C52.7398 7.63782 52.8062 7.64712 52.8062 7.71086C52.8062 7.78173 52.7559 7.79123 52.6895 7.79123L52.5843 7.79084Z" fill="#EF7B00"/>
<path d="M50.4531 3.58694C50.0131 3.40932 49.4831 3.2131 49.1379 3.05629C48.8004 2.90312 48.6812 2.74995 48.6812 2.51757C48.6812 2.20921 48.9999 2.04108 49.4057 2.04108C50.0269 2.04108 50.5119 2.32742 50.948 2.7936L52.3161 1.37142C51.7301 0.581517 50.7225 0.0842177 49.4372 0.0842177C47.696 0.0842177 46.3366 0.924233 46.3366 2.58062C46.3366 3.88924 46.9677 4.51809 48.1917 5.04772C48.5393 5.19806 49.0039 5.33184 49.3521 5.47975C49.6552 5.60867 49.847 5.74528 49.847 5.99504C49.847 6.22621 49.6449 6.41393 49.0565 6.41393C48.5141 6.41393 47.7338 6.1965 47.1655 5.82792L46.3337 7.53139C47.1251 8.10386 48.0816 8.33968 49.0593 8.33968C50.5772 8.33968 52.205 7.68254 52.205 5.91481C52.205 4.58255 51.3534 3.95026 50.4531 3.58694ZM3.15862 0.0118742C2.23771 -0.0315714 0.6681 0.0545128 0 0.104223L0.0537553 2.09625L0.693766 2.05583V8.26168H3.16085V6.71078C6.76689 6.53861 7.60939 4.61569 7.60939 3.25918C7.61 1.33525 6.0414 0.148475 3.15862 0.0118742ZM3.16085 4.77593V2.06493C4.73288 2.13889 5.11099 2.81118 5.11099 3.3594C5.11159 4.13819 4.5898 4.74724 3.16085 4.77593ZM27.8094 0.110888C25.427 0.110888 23.7778 1.83921 23.7778 4.22023C23.7778 6.60125 25.3316 8.37302 28.062 8.37302C29.2832 8.37302 30.3511 8.07678 31.2077 7.41217L30.2452 5.6499C29.6163 6.08617 28.9395 6.33169 28.1663 6.33169C27.1385 6.33169 26.532 5.86187 26.2998 5.04671H31.5521C31.5973 4.81048 31.6369 4.34976 31.6329 3.94056C31.6178 2.24639 30.7255 0.110888 27.8094 0.110888ZM26.2796 3.378C26.4718 2.58466 26.977 2.04311 27.8179 2.04311C28.619 2.04311 29.1986 2.5105 29.2651 3.378H26.2796ZM11.9771 0.160399C9.7111 0.160399 7.82562 1.84285 7.82562 4.22953C7.82562 6.6162 9.7111 8.29866 11.9771 8.29866C14.2431 8.29866 16.1286 6.6162 16.1286 4.22953C16.1286 1.84285 14.2433 0.160399 11.9771 0.160399ZM11.9957 6.11567C10.8947 6.11567 10.1971 5.26879 10.1971 4.21397C10.1971 3.15915 10.8953 2.31227 11.9957 2.31227C13.0961 2.31227 13.7943 3.15915 13.7943 4.21397C13.7943 5.26879 13.0969 6.11567 11.9957 6.11567ZM36.5493 0.400459L35.0029 3.73465L33.522 0.400459H30.8446L33.7025 6.09547V8.26976H36.271V6.0987L39.2771 0.400257L36.5493 0.400459ZM19.1726 0.0935122C18.2608 0.0506729 16.7072 0.135746 16.0451 0.185052L16.0983 2.15727L16.7322 2.11686V8.26128H19.175V6.72553C22.7455 6.55518 23.5805 4.65126 23.5805 3.30808C23.5795 1.40375 22.0267 0.22789 19.1724 0.0935122H19.1726ZM19.1752 4.81089V2.12636C20.7313 2.19951 21.1062 2.86514 21.1062 3.4079C21.1062 4.17901 20.5892 4.78199 19.175 4.81089H19.1752ZM42.3209 0.110888C39.9383 0.110888 38.2893 1.83921 38.2893 4.22023C38.2893 6.60125 39.8801 8.37282 42.5513 8.37282C43.6644 8.37282 44.6328 8.13033 45.4431 7.5805L44.5556 5.75477C43.9744 6.1286 43.3647 6.33149 42.656 6.33149C41.672 6.33149 41.0552 5.86167 40.8155 5.04651H46.0623C46.1076 4.81028 46.1482 4.34956 46.1446 3.94036C46.129 2.24639 45.2364 0.110888 42.3207 0.110888H42.3209ZM40.7907 3.378C40.9829 2.58466 41.4879 2.04311 42.3288 2.04311C43.13 2.04311 43.7151 2.51899 43.7761 3.378H40.7907Z" fill="#EF7B00"/>
</svg>
