<svg width="35" height="24" viewBox="0 0 35 24" fill="none" xmlns="http://www.w3.org/2000/svg">
<path fill-rule="evenodd" clip-rule="evenodd" d="M31.6989 6.15369C29.3852 4.818 24.0186 3.45846 21.7527 3.26764L20.0592 3.12453C18.2465 2.98142 17.2447 2.88602 16.4576 2.88602C15.6944 2.88602 11.1626 3.24379 11.1626 3.24379C8.89668 3.4346 3.53005 4.79415 1.21644 6.12984C0.119267 6.74998 0 7.20317 0 8.68197V12.4505C0 12.7606 0.0477033 13.2138 0.357775 13.5477C0.71555 13.9293 1.19259 13.9293 1.76503 13.9293H1.81273H31.1026H31.1503C31.6989 13.9293 32.1759 13.9293 32.5575 13.5477C32.8676 13.2138 32.9153 12.7606 32.9153 12.4505V8.70582C32.9153 7.22702 32.796 6.77384 31.6989 6.15369Z" fill="#00724C"/>
<path fill-rule="evenodd" clip-rule="evenodd" d="M32.5576 12.4744C32.5576 12.713 32.5337 13.0469 32.2952 13.2854C32.0329 13.5716 31.6751 13.5716 31.1503 13.5716H31.1026H1.81281H1.76511C1.26422 13.5716 0.882599 13.5716 0.62023 13.2854C0.405566 13.0469 0.381714 12.713 0.381714 12.4744V8.70588C0.381714 7.27478 0.500969 7.01241 1.40733 6.48768C3.69709 5.17584 8.9683 3.84014 11.2104 3.64933L12.9038 3.50622C14.7166 3.29156 15.7183 3.22 16.4816 3.22C17.2448 3.22 18.3659 3.2677 20.0355 3.50622L21.7289 3.64933C23.971 3.81629 29.2422 5.17584 31.532 6.48768C32.4383 7.01241 32.5576 7.27478 32.5576 8.70588V12.4744Z" fill="white"/>
<path d="M23.5893 1.97969L23.3746 1.90813C23.3269 1.88428 21.9435 1.52651 21.4903 1.50265L21.5857 0.954066C21.5857 0.906363 21.5857 0.882511 21.538 0.834808C21.3472 0.57244 19.3198 0 16.4338 0C13.5716 0 11.4726 0.548588 11.2818 0.787104C11.258 0.834808 11.2341 0.858659 11.258 0.906363L11.4011 1.52651C10.9479 1.55036 9.58835 1.90813 9.51679 1.93198L9.30212 2.00354L9.42138 2.14665L10.2323 3.00531L10.0654 4.46026L10.0415 4.65107L10.2323 4.60337C10.3993 4.55567 10.5901 4.50796 10.7809 4.43641C11.2341 4.2933 11.7827 4.15019 12.1405 4.15019C12.1405 4.15019 12.4267 4.15019 12.6891 4.12634C12.7845 4.12634 12.8322 4.10248 12.856 4.03093C12.8799 3.91167 12.5698 3.69701 12.4983 3.6493C12.6414 3.53004 14.8357 3.29153 16.4576 3.29153C16.4815 3.29153 16.5053 3.29153 16.5292 3.29153C18.1749 3.29153 20.2977 3.53004 20.417 3.6493C20.3454 3.69701 20.0115 3.91167 20.0592 4.05478C20.0592 4.10248 20.1308 4.12634 20.2262 4.15019C20.4886 4.17404 20.7748 4.17404 20.7748 4.17404C21.1564 4.17404 21.6811 4.341 22.1343 4.46026C22.3251 4.50796 22.5159 4.57952 22.6829 4.62722L22.8737 4.67492L22.6829 3.02916L23.4939 2.1705L23.5893 1.97969Z" fill="#DA1C15"/>
<path d="M20.7271 3.5062L20.6794 3.48235C20.5124 3.31538 18.3419 3.05302 16.4815 3.07687C14.6211 3.05302 12.3075 3.36309 12.1882 3.53005L12.1643 3.5539L12.1405 3.5062C12.1405 3.48235 11.6396 1.14488 11.5919 1.02563C11.5919 1.02563 11.5919 0.977923 11.6158 0.977923C11.7827 0.739406 13.9055 0.286224 16.4576 0.286224C17.5787 0.286224 18.7474 0.405483 19.7492 0.596296C20.5363 0.739406 21.1326 0.906367 21.228 1.02563C21.2518 1.04948 21.228 1.07333 21.228 1.09718C21.2041 1.21644 20.7509 3.29153 20.7509 3.31538L20.7271 3.5062Z" fill="#00724C"/>
<path d="M11.9259 3.76857L11.4488 1.74118C11.0911 1.74118 9.75537 2.09896 9.75537 2.09896L10.5186 2.88606L10.3517 4.29331C10.3517 4.29331 10.8048 4.17405 11.0195 4.12635C11.258 4.05479 11.4727 4.00709 11.6873 3.95938C11.8305 3.93553 11.9497 3.91168 12.0451 3.91168C12.069 3.91168 12.1167 3.91168 12.1405 3.91168L12.0928 3.88783L11.9259 3.76857Z" fill="#00724C"/>
<path d="M20.9656 3.81627L21.4427 1.78888C21.8005 1.78888 23.1361 2.14665 23.1361 2.14665L22.3729 2.93376L22.5399 4.34101C22.5399 4.34101 22.0867 4.22175 21.872 4.17404C21.6335 4.10249 21.4188 4.05479 21.2042 4.00708C21.0611 3.98323 20.9418 3.95938 20.8464 3.95938C20.8225 3.95938 20.7748 3.95938 20.751 3.95938L20.7987 3.93553L20.9656 3.81627Z" fill="#00724C"/>
<path d="M2.67138 10.5424C2.64753 10.5424 2.62368 10.5424 2.59983 10.5424C2.59983 11.091 2.59983 11.6396 2.59983 12.212C2.21821 12.212 1.83658 12.212 1.45496 12.212C1.45496 10.7571 1.45496 9.27825 1.45496 7.8233C1.86043 7.68019 2.24206 7.53708 2.64754 7.39397C3.6016 7.06005 4.19789 7.39397 4.22174 8.63426C4.24559 9.82684 3.6493 10.4231 2.67138 10.5424ZM2.74294 8.44344C2.69523 8.4673 2.64754 8.4673 2.59983 8.49115C2.59983 8.87277 2.59983 9.2544 2.59983 9.63603C2.64754 9.63603 2.69524 9.61218 2.7668 9.61218C3.05302 9.56447 3.17228 9.2544 3.17228 8.89663C3.14843 8.53885 3.02916 8.37189 2.74294 8.44344Z" fill="#DA1C15"/>
<path d="M8.68192 9.96996C8.65806 9.96996 8.5865 9.96996 8.5865 9.96996V12.1882H7.39392V6.03444C7.39392 6.03444 8.22873 5.86748 8.63421 5.79593C9.61213 5.60511 10.3754 6.1537 10.3992 7.68021C10.3992 9.18286 9.63598 9.87456 8.68192 9.96996ZM8.70576 7.13162C8.65806 7.13162 8.56266 7.15547 8.56266 7.15547C8.56266 7.15547 8.56266 8.18109 8.56266 8.68197C9.08739 8.63427 9.20666 8.39576 9.20666 7.77561C9.23051 7.29858 8.99198 7.08391 8.70576 7.13162Z" fill="#DA1C15"/>
<path d="M28.8128 7.94256C28.6459 7.9187 28.5028 7.89485 28.3358 7.84715C28.3835 7.46552 28.4312 7.0839 28.4551 6.70227C28.6697 6.74997 28.8605 6.82153 29.0752 6.89308C29.0037 7.25086 28.9083 7.58478 28.8128 7.94256Z" fill="#DA1C15"/>
<path fill-rule="evenodd" clip-rule="evenodd" d="M28.1687 11.6396C28.1687 11.4011 28.1687 11.1864 28.1687 10.9479V6.63075H28.1449C27.8109 6.53535 27.5724 6.48764 27.2147 6.39224C27.2147 6.46379 27.2147 6.53535 27.2147 6.6069V9.30214C26.9284 8.20496 26.5945 7.2986 26.2606 6.15372C26.2367 6.15372 26.2129 6.15372 26.2129 6.15372L25.1634 5.93906V9.58836C25.1396 10.447 25.1396 11.2818 25.1157 12.1882C25.1157 12.1882 25.1396 12.1882 25.1634 12.1882H26.2367V9.08747C26.523 10.1369 26.8807 11.1864 27.167 12.1882C27.1908 12.1882 27.1908 12.1882 27.2147 12.1882H27.4055C27.6678 12.1882 27.9302 12.1882 28.1926 12.1882V11.6396H28.1687Z" fill="#DA1C15"/>
<path d="M24.7341 5.86752H24.7103C24.3048 5.79596 23.5415 5.67671 23.5415 5.67671V8.10957H22.6829V5.79596C22.6829 5.72441 22.6829 5.65285 22.6829 5.5813C22.6352 5.5813 22.5875 5.55745 22.5398 5.55745L21.6095 5.43819C21.5618 5.43819 21.5141 5.41434 21.4664 5.41434V5.48589C21.4664 6.65462 21.4664 7.7518 21.4664 8.82512V12.1882H22.7067V9.68378H23.5892V12.1405V12.1644H24.7818V5.86752H24.7341Z" fill="#DA1C15"/>
<path d="M30.3869 9.06364C30.1961 8.87283 30.1007 8.70586 30.1007 8.56275C30.1007 8.41964 30.1484 8.27653 30.3392 8.27653C30.5539 8.27653 30.5777 8.5389 30.5777 8.70586C30.5777 8.75357 30.5777 8.77742 30.5777 8.82512H31.6034C31.5795 7.91876 31.2456 7.34632 30.4346 7.20321C29.6714 7.0601 28.9558 7.39402 28.932 8.34809C28.932 8.92053 29.1943 9.44527 29.6237 9.8746C29.8145 10.0654 30.0053 10.2562 30.22 10.447C30.4108 10.614 30.5062 10.7571 30.5062 10.8764C30.5062 11.0433 30.4108 11.1626 30.2438 11.1626C30.0292 11.1626 29.9337 10.9479 29.9337 10.781C29.9337 10.7094 29.9337 10.6378 29.9337 10.5424H28.8843C28.8843 10.5901 28.8843 10.6378 28.8843 10.7094C28.8843 11.6635 29.409 12.2836 30.1961 12.2836C31.1263 12.2836 31.6272 11.7112 31.6272 10.9241C31.6272 10.4709 31.3649 10.1131 30.9594 9.68378C30.7686 9.46912 30.5777 9.2783 30.3869 9.06364Z" fill="#DA1C15"/>
<path d="M6.12987 6.32071C5.72439 6.41612 5.31892 6.53537 4.91344 6.63078C4.60337 8.56277 4.31715 10.4232 4.00708 12.1882C4.38871 12.1882 4.77033 12.1882 5.15196 12.1882C5.17581 11.9736 5.22351 11.5204 5.22351 11.5204H5.91521C5.91521 11.5204 5.96291 11.9497 5.98676 12.1882C6.39224 12.1882 6.77387 12.1882 7.17935 12.1882C6.82157 10.1608 6.46379 8.20499 6.12987 6.32071ZM5.31892 10.4947C5.31892 10.4947 5.46203 9.1352 5.50973 8.44351C5.58129 9.11135 5.77209 10.4947 5.77209 10.4947H5.31892Z" fill="#DA1C15"/>
<path d="M12.6413 5.31891C12.212 5.36661 11.4726 5.43817 11.0433 5.48587C10.7094 7.77563 10.3993 9.96998 10.0892 12.1882C10.4947 12.1882 10.9717 12.1882 11.3772 12.1882C11.4011 11.9258 11.4488 11.3772 11.4488 11.3772H12.3074C12.3074 11.3772 12.3551 11.9258 12.4028 12.1882C12.8083 12.1882 13.3092 12.1882 13.7147 12.1882C13.3569 9.85072 12.9991 7.58482 12.6413 5.31891ZM11.568 10.1369L11.8542 7.65637H11.8781L12.212 10.1369H11.568Z" fill="#DA1C15"/>
<path d="M19.4151 5.19966C18.4849 5.1758 17.7455 5.91521 17.7455 7.20319C17.7455 8.20496 17.7455 9.20673 17.7455 10.2085C17.7455 11.4965 18.5087 12.2836 19.4151 12.2836C20.3215 12.2836 21.037 11.4488 21.037 10.2085C21.037 9.23059 21.0609 8.30037 21.0609 7.34631C21.0847 6.05832 20.4646 5.22351 19.4151 5.19966ZM19.7013 10.5663C19.7013 10.7332 19.5821 10.8525 19.4151 10.8525H19.3674C19.2004 10.8525 19.0812 10.7332 19.0812 10.5663V6.86927C19.0812 6.70231 19.2004 6.58305 19.3674 6.58305H19.4151C19.5821 6.58305 19.7013 6.70231 19.7013 6.86927V10.5663Z" fill="#DA1C15"/>
<path d="M16.1237 5.17579V10.2562V10.7094C16.1237 10.8048 16.0521 10.9002 15.9567 10.9002C15.9567 10.9002 15.9567 10.9002 15.9328 10.9002H15.909C15.7897 10.9002 15.6943 10.8048 15.6943 10.6855V9.96997C15.3366 9.96997 14.9072 9.96997 14.5494 9.96997C14.5494 10.1369 14.5494 10.5424 14.5494 10.7094C14.5494 11.5919 15.098 12.212 15.909 12.212C15.9805 12.212 16.0521 12.212 16.1237 12.1882C17.0062 12.1166 17.3639 11.5442 17.3639 10.2085V5.12808L16.1237 5.17579Z" fill="#DA1C15"/>
<path d="M13.5002 2.74318L13.2855 1.00201L13.8103 0.930453C14.168 0.88275 14.4304 1.02586 14.4781 1.35978C14.5258 1.69371 14.2873 1.93222 13.9534 1.95607L13.8103 1.97993L13.9057 2.67162L13.5002 2.74318ZM13.8818 1.66985C14.0011 1.646 14.0965 1.5506 14.0726 1.40749C14.0488 1.28823 13.9534 1.21667 13.8341 1.24052L13.691 1.26438L13.7387 1.69371L13.8818 1.66985Z" fill="white"/>
<path d="M14.8121 2.57589L14.7167 0.81087L15.0983 0.787018L15.1937 2.55204L14.8121 2.57589Z" fill="white"/>
<path d="M15.5991 2.52821V2.26584L16.2193 1.07326H15.5991V0.763184H16.6724V1.0017L16.0284 2.21813H16.6963V2.52821H15.5991Z" fill="white"/>
<path d="M17.0304 2.50435V2.24199L17.7459 1.09711L17.1258 1.07326L17.1497 0.763184L18.223 0.810887V1.0494L17.5074 2.21813L18.1753 2.24199L18.1514 2.55206L17.0304 2.50435Z" fill="white"/>
<path d="M19.2484 2.71902V2.50435L18.8907 2.45665L18.8191 2.67132L18.4375 2.62361L19.0815 0.930145L19.4631 0.977849L19.6301 2.76672L19.2484 2.71902ZM19.2007 1.52644L18.9861 2.19428L19.2484 2.21813L19.2007 1.52644Z" fill="white"/>
<path d="M33.7025 8.03803C33.4163 8.03803 33.1777 7.79951 33.1777 7.51329C33.1777 7.22707 33.3924 6.98856 33.7025 6.98856C34.0125 6.98856 34.2272 7.22707 34.2272 7.51329C34.2272 7.79951 33.9887 8.03803 33.7025 8.03803ZM33.7025 7.06011C33.4401 7.06011 33.2731 7.25092 33.2731 7.51329C33.2731 7.75181 33.464 7.96647 33.7025 7.96647C33.9648 7.96647 34.1556 7.77566 34.1556 7.51329C34.1318 7.25092 33.9648 7.06011 33.7025 7.06011ZM33.8694 7.75181C33.7979 7.75181 33.774 7.72796 33.774 7.68025V7.6087C33.774 7.561 33.7502 7.53714 33.7025 7.53714H33.6071V7.72796H33.5116V7.25092H33.7025C33.7979 7.25092 33.8456 7.29863 33.8456 7.37018V7.39403C33.8456 7.44174 33.8217 7.48944 33.774 7.48944C33.8217 7.48944 33.8456 7.53714 33.8456 7.58485V7.63255C33.8456 7.6564 33.8456 7.6564 33.8694 7.6564V7.72796V7.75181ZM33.774 7.39403C33.774 7.37018 33.7502 7.34633 33.7263 7.34633H33.6309V7.48944H33.7025C33.7502 7.46559 33.774 7.44174 33.774 7.39403Z" fill="#00724C"/>
<path d="M2.12276 17.8424V16.292L1.81269 16.8644L1.50263 16.292V17.8424H1.04944V15.4333H1.50263L1.81269 16.1012L2.14661 15.4333H2.5998V17.8424H2.12276Z" fill="#A68663"/>
<path d="M3.00537 17.841V15.432H4.24566V15.8613H3.4824V16.4099H3.86402V16.8393H3.4824V17.4117H4.24566V17.841H3.00537Z" fill="#A68663"/>
<path d="M5.19961 15.432H5.67664V17.2209C5.67664 17.6025 5.39041 17.8649 5.00879 17.8649C4.60331 17.8649 4.34094 17.6264 4.34094 17.2209V17.1016H4.79413V17.2209C4.79413 17.364 4.86568 17.4355 4.98494 17.4355C5.1042 17.4355 5.17575 17.3401 5.17575 17.197V15.432H5.19961Z" fill="#A68663"/>
<path d="M7.46552 17.1732C7.46552 17.5786 7.1316 17.8649 6.74997 17.8649C6.3445 17.8649 6.03442 17.6025 6.03442 17.1732V16.076C6.03442 15.6705 6.36835 15.4081 6.74997 15.4081C7.15545 15.4081 7.46552 15.6705 7.46552 16.076V17.1732ZM6.98849 16.1237C6.98849 15.9329 6.89308 15.8136 6.74997 15.8136C6.60686 15.8136 6.51146 15.9329 6.51146 16.1237V17.1255C6.51146 17.3163 6.60686 17.4355 6.74997 17.4355C6.86923 17.4355 6.98849 17.3401 6.98849 17.1732V16.1237Z" fill="#A68663"/>
<path d="M8.77739 17.841L8.41961 16.8631H8.3242V17.841H7.84717V15.432H8.49117C8.9205 15.432 9.20671 15.6944 9.20671 16.1237C9.20671 16.3861 9.08746 16.6246 8.84894 16.7438L9.27827 17.841H8.77739ZM8.46731 16.4576C8.63427 16.4576 8.75353 16.3145 8.75353 16.1476C8.75353 15.9806 8.63427 15.8613 8.46731 15.8613H8.3242V16.4815H8.46731V16.4576Z" fill="#A68663"/>
<path d="M9.54065 17.841V15.432H10.7809V15.8613H10.0177V16.4099H10.3993V16.8393H10.0177V17.4117H10.7809V17.841H9.54065Z" fill="#A68663"/>
<path d="M11.2579 16.6723C11.0194 16.5053 10.9001 16.3384 10.9001 16.076C10.9001 15.6228 11.2341 15.4081 11.5919 15.4081C12.0212 15.4081 12.2597 15.6944 12.2597 16.0998V16.1952H11.8065V16.0998C11.8065 15.9567 11.735 15.8375 11.5919 15.8375C11.4726 15.8375 11.401 15.909 11.401 16.0283C11.401 16.1952 11.4726 16.2429 11.6157 16.3622L11.9496 16.6007C12.1643 16.7677 12.2835 16.9346 12.2835 17.1732C12.2835 17.6025 11.9496 17.8649 11.5919 17.8649C11.2102 17.8649 10.9001 17.6025 10.9001 17.2209V17.1016H11.3533V17.197C11.3533 17.3401 11.4487 17.4594 11.5919 17.4594C11.7111 17.4594 11.8065 17.364 11.8065 17.2209C11.8065 17.1016 11.7588 17.0301 11.6157 16.9346L11.2579 16.6723Z" fill="#A68663"/>
<path d="M13.2137 17.841V15.432H13.6908V17.841H13.2137Z" fill="#A68663"/>
<path d="M15.0981 17.841L14.5734 16.3861V17.841H14.144V15.432H14.5972L15.1458 16.887V15.432H15.5751V17.841H15.0981Z" fill="#A68663"/>
<path d="M16.8392 16.9824H16.6245V16.5769H17.3162V17.197C17.3162 17.6025 17.0061 17.8649 16.6006 17.8649C16.219 17.8649 15.9089 17.6025 15.9089 17.197V16.076C15.9089 15.6705 16.219 15.4081 16.6245 15.4081C17.0538 15.4081 17.3162 15.6705 17.3162 16.0998V16.1952H16.863V16.0998C16.863 15.9329 16.7437 15.8375 16.6245 15.8375C16.5052 15.8375 16.386 15.9329 16.386 16.076V17.2209C16.386 17.364 16.4814 17.4594 16.6245 17.4594C16.7437 17.4594 16.863 17.364 16.863 17.2209V16.9824H16.8392Z" fill="#A68663"/>
<path d="M18.6281 17.841L18.2703 16.8631H18.1749V17.841H17.6979V15.432H18.3419C18.7712 15.432 19.0574 15.6944 19.0574 16.1237C19.0574 16.3861 18.9382 16.6246 18.6996 16.7438L19.129 17.841H18.6281ZM18.318 16.4576C18.485 16.4576 18.6042 16.3145 18.6042 16.1476C18.6042 15.9806 18.485 15.8613 18.318 15.8613H18.1749V16.4815H18.318V16.4576Z" fill="#A68663"/>
<path d="M19.3676 17.841V15.432H20.6078V15.8613H19.8446V16.4099H20.2262V16.8393H19.8446V17.4117H20.6078V17.841H19.3676Z" fill="#A68663"/>
<path d="M20.8702 17.841V15.432H21.5858C21.9436 15.432 22.2536 15.6705 22.2536 16.076V17.197C22.2536 17.6025 21.9436 17.841 21.5858 17.841H20.8702ZM21.7766 16.0999C21.7766 15.9567 21.6812 15.8613 21.5619 15.8613H21.3473V17.4117H21.5619C21.7051 17.4117 21.7766 17.2924 21.7766 17.1732V16.0999Z" fill="#A68663"/>
<path d="M22.6591 17.841V15.432H23.1361V17.841H22.6591Z" fill="#A68663"/>
<path d="M23.5654 17.841V15.432H24.8057V15.8613H24.0425V16.4099H24.4241V16.8393H24.0425V17.4117H24.8057V17.841H23.5654Z" fill="#A68663"/>
<path d="M26.0222 17.841L25.4974 16.3861V17.841H25.0681V15.432H25.5213L26.0699 16.887V15.432H26.4992V17.841H26.0222Z" fill="#A68663"/>
<path d="M27.2147 17.841V15.8613H26.7377V15.432H28.1688V15.8613H27.6917V17.841H27.2147Z" fill="#A68663"/>
<path d="M28.4312 17.841V15.432H29.6714V15.8613H28.9082V16.4099H29.2898V16.8393H28.9082V17.4117H29.6714V17.841H28.4312Z" fill="#A68663"/>
<path d="M30.1485 16.6723C29.9338 16.5053 29.8146 16.3384 29.8146 16.076C29.8146 15.6228 30.1485 15.4081 30.5063 15.4081C30.9356 15.4081 31.1741 15.6944 31.1741 16.0998V16.1952H30.7209V16.0998C30.7209 15.9567 30.6494 15.8375 30.5063 15.8375C30.387 15.8375 30.3155 15.909 30.3155 16.0283C30.3155 16.1952 30.387 16.2429 30.5301 16.3622L30.8641 16.6007C31.0787 16.7677 31.2218 16.9346 31.2218 17.1732C31.2218 17.6025 30.8879 17.8649 30.5301 17.8649C30.1485 17.8649 29.8623 17.6025 29.8623 17.2209V17.1016H30.3155V17.197C30.3155 17.3401 30.4109 17.4594 30.554 17.4594C30.6732 17.4594 30.7686 17.364 30.7686 17.2209C30.7686 17.1016 30.7209 17.0301 30.5778 16.9346L30.1485 16.6723Z" fill="#A68663"/>
<path d="M31.6033 17.8649C31.4602 17.8649 31.3171 17.7456 31.3171 17.6025C31.3171 17.4355 31.4364 17.3163 31.6033 17.3163C31.7703 17.3163 31.8896 17.4355 31.8896 17.6025C31.8657 17.7218 31.7465 17.8649 31.6033 17.8649Z" fill="#A68663"/>
<path d="M3.00528 23.2557V20.4889H2.98142L2.43283 21.4907L1.88425 20.4889H1.8604V23.2557H1.04944V18.9862H1.8604L2.43283 20.155L3.00528 18.9862H3.81622V23.2557H3.00528Z" fill="#A68663"/>
<path d="M4.651 23.2553V18.9859H6.84536V19.7491H5.50967V20.727H6.20136V21.4903H5.50967V22.5159H6.84536V23.2792H4.651V23.2553Z" fill="#A68663"/>
<path d="M8.68209 18.9859H9.54075V22.1343C9.54075 22.826 9.03986 23.303 8.34817 23.303C7.60876 23.303 7.17944 22.8737 7.17944 22.1343V21.9196H7.96654V22.1581C7.96654 22.3967 8.0858 22.5636 8.32432 22.5636C8.53898 22.5636 8.68209 22.3967 8.68209 22.1581V18.9859Z" fill="#A68663"/>
<path d="M12.7845 22.0866C12.7845 22.826 12.2121 23.303 11.5204 23.303C10.8287 23.303 10.2562 22.8498 10.2562 22.0866V20.1307C10.2562 19.3913 10.8287 18.9143 11.5204 18.9143C12.2121 18.9143 12.7845 19.3675 12.7845 20.1307V22.0866ZM11.9258 20.2261C11.9258 19.8684 11.7589 19.7014 11.5204 19.7014C11.258 19.7014 11.091 19.8922 11.091 20.2261V22.015C11.091 22.3489 11.258 22.5636 11.5204 22.5636C11.735 22.5636 11.9258 22.3966 11.9258 22.1104V20.2261Z" fill="#A68663"/>
<path d="M15.1696 23.2553L14.5495 21.5141H14.3587V23.2553H13.5V18.9859H14.6687C15.432 18.9859 15.9567 19.4629 15.9567 20.2262C15.9567 20.6793 15.7659 21.1087 15.3366 21.3233L16.0998 23.2553H15.1696ZM14.621 20.8224C14.9073 20.8224 15.1219 20.5601 15.1219 20.2739C15.1219 19.9638 14.9311 19.7491 14.621 19.7491H14.3587V20.8224H14.621Z" fill="#A68663"/>
<path d="M17.9602 23.2553V18.9859H19.1051C19.8683 18.9859 20.4169 19.4152 20.4169 20.2262C20.4169 21.0371 19.8683 21.538 19.0812 21.538H18.7712V23.2553H17.9602ZM19.0812 20.7986C19.3674 20.7986 19.5821 20.5601 19.5821 20.2262C19.5821 19.9161 19.3913 19.7253 19.0812 19.7253H18.7712V20.7986H19.0812Z" fill="#A68663"/>
<path d="M21.0609 23.2553V18.9859H21.8957V23.2553H21.0609Z" fill="#A68663"/>
<path d="M22.5874 23.2553V22.6352L24.0185 19.7491H22.6351V18.9859H24.9964V19.5583L23.5415 22.4921H25.0203V23.2553H22.5874Z" fill="#A68663"/>
<path d="M25.5688 23.2553V22.6352L26.9999 19.7491H25.6166V18.9859H27.9779V19.5583L26.5229 22.4921H28.0017V23.2553H25.5688Z" fill="#A68663"/>
<path d="M30.1962 23.2553L30.1007 22.7306H29.3136L29.2182 23.2553H28.3834L29.3136 18.9859H30.1723L31.0548 23.2553H30.1962ZM29.743 20.3931L29.4329 22.0389H30.0053L29.743 20.3931Z" fill="#A68663"/>
<path d="M31.6034 23.2791C31.4603 23.2791 31.3411 23.1599 31.3411 23.0168C31.3411 22.8498 31.4603 22.7306 31.6034 22.7306C31.7704 22.7306 31.8896 22.8498 31.8896 23.0168C31.8896 23.1599 31.7465 23.2791 31.6034 23.2791Z" fill="#A68663"/>
</svg>
