<svg width="68" height="30" viewBox="0 0 68 30" fill="none" xmlns="http://www.w3.org/2000/svg">
<path d="M38.6311 19.5146C37.8268 19.5146 37.4246 19.0774 37.4246 18.203V11.5627C37.4246 11.1289 37.5279 10.7919 37.736 10.5765C37.8495 10.4651 37.9852 10.3786 38.1343 10.3226C38.2835 10.2666 38.4428 10.2422 38.602 10.2511H38.8713C39.0143 10.2491 39.1571 10.2612 39.2977 10.2873C39.4076 10.3094 39.513 10.35 39.6092 10.4073C39.7059 10.4659 39.7945 10.5368 39.8726 10.6184C39.9526 10.7023 40.0443 10.8021 40.1491 10.9076L43.4398 15.1648V11.5497C43.4398 10.682 43.8532 10.2381 44.6755 10.2381H44.9171C45.7117 10.2381 46.1086 10.6753 46.1076 11.5497V18.19C46.1076 18.6325 46.0057 18.9607 45.8034 19.1776C45.6938 19.2879 45.5619 19.3738 45.4164 19.4297C45.2708 19.4855 45.115 19.51 44.9593 19.5016H44.7322C44.5859 19.5039 44.4397 19.4923 44.2956 19.4669C44.1873 19.4465 44.0824 19.411 43.9841 19.3613C43.8902 19.3106 43.8043 19.2463 43.7294 19.1704C43.6479 19.0909 43.5606 18.994 43.466 18.8812L40.104 14.5531V18.19C40.104 19.0653 39.6921 19.5025 38.8683 19.5016L38.6311 19.5146Z" fill="#928681"/>
<path d="M54.4544 18.4286C54.1924 18.7986 53.8343 19.091 53.4182 19.2745C52.9038 19.4956 52.3468 19.6017 51.7866 19.5854C51.1678 19.5943 50.554 19.4741 49.9848 19.2326C49.4603 19.0079 48.9907 18.6735 48.608 18.2522C48.2225 17.8177 47.9259 17.3128 47.7348 16.7656C47.5207 16.1585 47.4149 15.5189 47.4218 14.8756C47.4153 14.2238 47.5385 13.5771 47.7843 12.9726C48.0147 12.405 48.3617 11.8914 48.803 11.4644C49.2591 11.0319 49.7988 10.6958 50.3894 10.4767C51.0478 10.2348 51.7455 10.1157 52.4474 10.1253C52.9649 10.1183 53.4814 10.1732 53.9858 10.2887C54.3876 10.3781 54.773 10.5288 55.1283 10.7356C55.4156 10.9003 55.6591 11.1308 55.8385 11.408C55.9967 11.6615 56.0799 11.9542 56.0787 12.2525C56.0867 12.4847 56.0114 12.7123 55.8662 12.8945C55.7373 13.0585 55.5789 13.1973 55.399 13.3038C55.2486 13.3948 55.0859 13.464 54.9158 13.5091C54.7702 13.5467 54.68 13.551 54.6611 13.5221C54.4203 13.2153 54.1115 12.9679 53.7587 12.7991C53.4027 12.6297 53.0124 12.5431 52.6177 12.546C52.3038 12.5424 51.9924 12.602 51.7022 12.721C51.4242 12.8381 51.1731 13.0104 50.9643 13.2271C50.7476 13.4542 50.5788 13.7222 50.468 14.0152C50.3453 14.3385 50.2851 14.682 50.2905 15.0275C50.2853 15.3717 50.3405 15.7142 50.4535 16.0397C50.553 16.3244 50.7072 16.5871 50.9076 16.8133C51.1001 17.0274 51.3369 17.1975 51.6018 17.3122C51.8825 17.4305 52.1847 17.49 52.4896 17.4872C52.9226 17.5092 53.3516 17.3959 53.7165 17.1633C54.0153 16.9602 54.2218 16.6486 54.2914 16.2957H53.341C52.8957 16.2957 52.5619 16.2301 52.3397 16.099C52.1185 15.9674 52.0064 15.7086 52.0064 15.3225V15.1967C52.0064 14.7927 52.1156 14.5295 52.3339 14.4071C52.5522 14.2847 52.8879 14.2235 53.341 14.2235H55.8385C56.2451 14.2235 56.5124 14.3223 56.6405 14.5199C56.7671 14.7166 56.8267 15.0173 56.8166 15.4222V19.2427C56.8166 19.289 56.722 19.3483 56.5328 19.4191C56.3187 19.4938 56.0929 19.5295 55.8662 19.5247C55.7231 19.5248 55.5804 19.5083 55.4412 19.4755C55.2978 19.4418 55.1611 19.3846 55.0366 19.3064C54.9018 19.2199 54.7859 19.1072 54.696 18.9752C54.5868 18.8115 54.5075 18.6298 54.4617 18.4387" fill="#928681"/>
<path d="M62.3239 14.5937C62.7518 14.5937 63.072 14.5026 63.2874 14.3189C63.3961 14.2208 63.4813 14.0998 63.5367 13.9646C63.5921 13.8295 63.6163 13.6837 63.6076 13.5381C63.6076 12.8218 63.171 12.4641 62.2977 12.4651H61.1334V14.5937H62.3239ZM66.5446 18.5458C66.5635 18.5747 66.5446 18.6398 66.4951 18.7439C66.424 18.8705 66.3297 18.9828 66.2171 19.075C66.0615 19.207 65.8843 19.3117 65.6932 19.3845C65.4445 19.4796 65.1795 19.5253 64.9131 19.519C64.7167 19.5219 64.5208 19.4981 64.3309 19.4481C64.1593 19.4009 63.9963 19.3272 63.8477 19.2298C63.6896 19.1253 63.5466 18.9997 63.4227 18.8567C63.2898 18.7063 63.1477 18.5275 62.9963 18.3202L61.7053 16.6153H61.1814V18.206C61.1814 18.6282 61.0766 18.9536 60.8685 19.1792C60.6604 19.4047 60.3474 19.5175 59.9312 19.5175H59.5339C59.359 19.5271 59.1845 19.4923 59.0269 19.4164C58.8693 19.3405 58.7337 19.226 58.633 19.0837C58.4307 18.7945 58.3288 18.3954 58.3288 17.8791V11.9011C58.3288 11.3849 58.4539 10.9915 58.7043 10.724C58.9546 10.4565 59.317 10.322 59.79 10.322H62.615C63.9016 10.322 64.8617 10.576 65.4953 11.0841C66.1288 11.5921 66.4456 12.3393 66.4456 13.3255C66.4656 13.9282 66.2901 14.5213 65.945 15.0174C65.5787 15.4991 65.0582 15.8423 64.4692 15.9906L66.5446 18.5458Z" fill="#928681"/>
<path d="M38.6311 19.5146C37.8268 19.5146 37.4246 19.0774 37.4246 18.203V11.5627C37.4246 11.1289 37.5279 10.7919 37.736 10.5765C37.8495 10.4651 37.9852 10.3786 38.1343 10.3226C38.2835 10.2666 38.4428 10.2422 38.602 10.2511H38.8713C39.0143 10.2491 39.1571 10.2612 39.2977 10.2873C39.4076 10.3094 39.513 10.35 39.6092 10.4073C39.7059 10.4659 39.7945 10.5368 39.8726 10.6184C39.9526 10.7023 40.0443 10.8021 40.1491 10.9076L43.4398 15.1648V11.5497C43.4398 10.682 43.8532 10.2381 44.6755 10.2381H44.9171C45.7117 10.2381 46.1086 10.6753 46.1076 11.5497V18.19C46.1076 18.6325 46.0057 18.9607 45.8034 19.1776C45.6938 19.2879 45.5619 19.3738 45.4164 19.4297C45.2708 19.4855 45.115 19.51 44.9593 19.5016H44.7322C44.5859 19.5039 44.4397 19.4923 44.2956 19.4669C44.1873 19.4465 44.0824 19.411 43.9841 19.3613C43.8902 19.3106 43.8043 19.2463 43.7294 19.1704C43.6479 19.0909 43.5606 18.994 43.466 18.8812L40.104 14.5531V18.19C40.104 19.0653 39.6921 19.5025 38.8683 19.5016L38.6311 19.5146Z" fill="#928681"/>
<path d="M54.4544 18.4286C54.1924 18.7986 53.8343 19.091 53.4182 19.2745C52.9038 19.4956 52.3468 19.6017 51.7866 19.5854C51.1678 19.5943 50.554 19.4741 49.9848 19.2326C49.4603 19.0079 48.9907 18.6735 48.608 18.2522C48.2225 17.8177 47.9259 17.3128 47.7348 16.7656C47.5207 16.1585 47.4149 15.5189 47.4218 14.8756C47.4153 14.2238 47.5385 13.5771 47.7843 12.9726C48.0147 12.405 48.3617 11.8914 48.803 11.4644C49.2591 11.0319 49.7988 10.6958 50.3894 10.4767C51.0478 10.2348 51.7455 10.1157 52.4474 10.1253C52.9649 10.1183 53.4814 10.1732 53.9858 10.2887C54.3876 10.3781 54.773 10.5288 55.1283 10.7356C55.4156 10.9003 55.6591 11.1308 55.8385 11.408C55.9967 11.6615 56.0799 11.9542 56.0787 12.2525C56.0867 12.4847 56.0114 12.7123 55.8662 12.8945C55.7373 13.0585 55.5789 13.1973 55.399 13.3038C55.2486 13.3948 55.0859 13.464 54.9158 13.5091C54.7702 13.5467 54.68 13.551 54.6611 13.5221C54.4203 13.2153 54.1115 12.9679 53.7587 12.7991C53.4027 12.6297 53.0124 12.5431 52.6177 12.546C52.3038 12.5424 51.9924 12.602 51.7022 12.721C51.4242 12.8381 51.1731 13.0104 50.9643 13.2271C50.7476 13.4542 50.5788 13.7222 50.468 14.0152C50.3453 14.3385 50.2851 14.682 50.2905 15.0275C50.2853 15.3717 50.3405 15.7142 50.4535 16.0397C50.553 16.3244 50.7072 16.5871 50.9076 16.8133C51.1001 17.0274 51.3369 17.1975 51.6018 17.3122C51.8825 17.4305 52.1847 17.49 52.4896 17.4872C52.9226 17.5092 53.3516 17.3959 53.7165 17.1633C54.0153 16.9602 54.2218 16.6486 54.2914 16.2957H53.341C52.8957 16.2957 52.5619 16.2301 52.3397 16.099C52.1185 15.9674 52.0064 15.7086 52.0064 15.3225V15.1967C52.0064 14.7927 52.1156 14.5295 52.3339 14.4071C52.5522 14.2847 52.8879 14.2235 53.341 14.2235H55.8385C56.2451 14.2235 56.5124 14.3223 56.6405 14.5199C56.7671 14.7166 56.8267 15.0173 56.8166 15.4222V19.2427C56.8166 19.289 56.722 19.3483 56.5328 19.4191C56.3187 19.4938 56.0929 19.5295 55.8662 19.5247C55.7231 19.5248 55.5804 19.5083 55.4412 19.4755C55.2978 19.4418 55.1611 19.3846 55.0366 19.3064C54.9018 19.2199 54.7859 19.1072 54.696 18.9752C54.5868 18.8115 54.5075 18.6298 54.4617 18.4387" fill="#928681"/>
<path d="M62.3239 14.5937C62.7518 14.5937 63.072 14.5026 63.2874 14.3189C63.3961 14.2208 63.4813 14.0998 63.5367 13.9646C63.5921 13.8295 63.6163 13.6837 63.6076 13.5381C63.6076 12.8218 63.171 12.4641 62.2977 12.4651H61.1334V14.5937H62.3239ZM66.5446 18.5458C66.5635 18.5747 66.5446 18.6398 66.4951 18.7439C66.424 18.8705 66.3297 18.9828 66.2171 19.075C66.0615 19.207 65.8843 19.3117 65.6932 19.3845C65.4445 19.4796 65.1795 19.5253 64.9131 19.519C64.7167 19.5219 64.5208 19.4981 64.3309 19.4481C64.1593 19.4009 63.9963 19.3272 63.8477 19.2298C63.6896 19.1253 63.5466 18.9997 63.4227 18.8567C63.2898 18.7063 63.1477 18.5275 62.9963 18.3202L61.7053 16.6153H61.1814V18.206C61.1814 18.6282 61.0766 18.9536 60.8685 19.1792C60.6604 19.4047 60.3474 19.5175 59.9312 19.5175H59.5339C59.359 19.5271 59.1845 19.4923 59.0269 19.4164C58.8693 19.3405 58.7337 19.226 58.633 19.0837C58.4307 18.7945 58.3288 18.3954 58.3288 17.8791V11.9011C58.3288 11.3849 58.4539 10.9915 58.7043 10.724C58.9546 10.4565 59.317 10.322 59.79 10.322H62.615C63.9016 10.322 64.8617 10.576 65.4953 11.0841C66.1288 11.5921 66.4456 12.3393 66.4456 13.3255C66.4656 13.9282 66.2901 14.5213 65.945 15.0174C65.5787 15.4991 65.0582 15.8423 64.4692 15.9906L66.5446 18.5458Z" fill="#928681"/>
<path d="M11.8383 23.9598C11.4017 23.9222 10.9651 23.8672 10.5503 23.7949V26.6306C10.5507 27.1025 10.7396 27.5549 11.0756 27.8884C11.4115 28.222 11.867 28.4093 12.3419 28.4093H17.855C18.0901 28.4093 18.3229 28.3633 18.5401 28.2739C18.7573 28.1845 18.9546 28.0535 19.1209 27.8883C19.2871 27.7232 19.419 27.5271 19.5089 27.3113C19.5989 27.0955 19.6452 26.8642 19.6452 26.6306V24.1854C17.171 24.4124 14.3504 24.2186 11.8383 23.9627" fill="#FAC26F"/>
<path d="M17.8725 5.46468C18.4695 5.46889 19.0641 5.53971 19.6452 5.67581V3.0729C19.6452 2.83939 19.5989 2.60817 19.5089 2.39245C19.4189 2.17674 19.287 1.98075 19.1208 1.81571C18.9545 1.65066 18.7572 1.51978 18.54 1.43055C18.3228 1.34132 18.0901 1.2955 17.855 1.29569H12.3405C11.8659 1.29569 11.4108 1.48288 11.0751 1.81613C10.7395 2.14938 10.5507 2.60142 10.5503 3.0729V5.64399C12.812 5.30561 15.6588 5.46468 17.8725 5.46468Z" fill="#FAC26F"/>
<path d="M5.68634 10.5678C5.69507 10.4897 5.70381 10.4131 5.71108 10.3365H3.24706C2.77215 10.3365 2.31666 10.5238 1.98071 10.8573C1.64476 11.1908 1.45583 11.6433 1.45544 12.1151V17.5942C1.45583 18.0661 1.64476 18.5185 1.98071 18.852C2.31666 19.1856 2.77215 19.3729 3.24706 19.3729H5.74601C5.73874 19.2992 5.73 19.2283 5.72418 19.1473C5.4331 15.0318 5.48695 12.7037 5.68634 10.5678Z" fill="#FAC26F"/>
<path d="M26.9572 10.3365H24.5762C24.7566 12.4318 24.6358 15.9761 24.6446 17.399C24.6484 18.0604 24.5943 18.7208 24.483 19.3729H26.9572C27.4318 19.3725 27.8867 19.185 28.2221 18.8514C28.5575 18.5179 28.7459 18.0657 28.7459 17.5942V12.1151C28.7459 11.6436 28.5575 11.1914 28.2221 10.8579C27.8867 10.5244 27.4318 10.3368 26.9572 10.3365Z" fill="#FAC26F"/>
<path d="M8.76454 10.3365C9.23932 10.3365 9.69465 10.1491 10.0304 9.8155C10.3661 9.48193 10.5547 9.02953 10.5547 8.5578V5.64398C10.3626 5.6729 10.1734 5.70327 9.99 5.74087C7.20142 6.31929 6.02399 7.64389 5.71544 10.3365H8.77181H8.76454Z" fill="#F18925"/>
<path d="M19.6452 8.55778C19.6456 9.02914 19.8342 9.48111 20.1695 9.81455C20.5048 10.148 20.9595 10.3357 21.434 10.3364H24.5762C24.5209 9.69149 24.4307 9.17959 24.3113 8.91641C23.5589 7.22018 21.5373 6.12117 19.6452 5.67578V8.552V8.55778Z" fill="#F18925"/>
<path d="M21.434 19.3729C20.9602 19.374 20.5061 19.5614 20.1709 19.8941C19.8358 20.2269 19.6468 20.6779 19.6452 21.1486V24.1854L19.9087 24.1608C22.7133 23.899 24.0581 21.8341 24.486 19.3758H21.4296L21.434 19.3729Z" fill="#F18925"/>
<path d="M10.5503 21.1486C10.5503 20.915 10.504 20.6838 10.4141 20.468C10.3241 20.2522 10.1922 20.0561 10.026 19.8909C9.85978 19.7258 9.66243 19.5947 9.44524 19.5054C9.22804 19.416 8.99526 19.37 8.76017 19.37H5.746C6.05746 22.2794 8.12852 23.3712 10.5489 23.792V21.1486H10.5503Z" fill="#F18925"/>
<path d="M19.7165 15.9428C19.7253 17.519 19.1344 19.075 17.4082 19.2369C16.1741 19.3671 14.7434 19.2688 13.4786 19.1401C12.0232 19.0099 10.6289 18.5515 10.5008 16.796C10.3553 14.7903 10.3859 13.6551 10.4834 12.6169C10.6115 11.2272 11.1805 10.5533 12.5763 10.2627C13.7144 10.0371 15.2484 10.1296 16.42 10.1296C17.4927 10.1296 19.0689 10.7081 19.5564 11.8114C19.817 12.3595 19.7136 15.0376 19.7195 15.9428H19.7165ZM24.5791 10.3422H21.4339C20.9595 10.3414 20.5048 10.1538 20.1695 9.82032C19.8341 9.48688 19.6456 9.03492 19.6452 8.56356V5.67577C19.0644 5.53773 18.4697 5.46497 17.8725 5.45886C15.6588 5.45886 12.812 5.29979 10.5503 5.63817V8.55199C10.5503 8.78556 10.504 9.01685 10.4141 9.23265C10.3241 9.44845 10.1922 9.64452 10.026 9.80969C9.85977 9.97485 9.66242 10.1059 9.44523 10.1953C9.22803 10.2846 8.99525 10.3306 8.76016 10.3306H5.70815C5.70815 10.4073 5.69214 10.4839 5.68341 10.562C5.48547 12.6964 5.42435 15.026 5.72125 19.1415C5.72125 19.2196 5.73581 19.2933 5.74308 19.3671H8.76453C9.23931 19.3671 9.69464 19.5545 10.0304 19.888C10.3661 20.2216 10.5547 20.674 10.5547 21.1457V23.7949C10.9768 23.8672 11.4076 23.9222 11.8427 23.9598C14.3548 24.2157 17.1754 24.4095 19.6496 24.1825V21.1486C19.65 20.6771 19.8385 20.225 20.1737 19.8914C20.509 19.5577 20.9638 19.3697 21.4383 19.3685H24.4947C24.605 18.7164 24.6581 18.0559 24.6533 17.3947C24.6446 15.9746 24.7654 12.4274 24.5849 10.3321" fill="#E7443E"/>
<path d="M19.5535 11.8056C19.066 10.7066 17.4883 10.1239 16.4171 10.1239C15.2455 10.1239 13.7115 10.0313 12.5733 10.2569C11.1761 10.5461 10.61 11.2214 10.4805 12.6111C10.3829 13.6494 10.3538 14.7802 10.4979 16.7902C10.626 18.5457 12.0145 19.0041 13.4757 19.1343C14.7434 19.263 16.174 19.3613 17.4053 19.2312C19.1271 19.0692 19.7224 17.5133 19.7136 15.9385C19.7136 15.0318 19.8111 12.3537 19.5506 11.8056" fill="#B31829"/>
</svg>
