<svg width="52" height="52" viewBox="0 0 52 52" fill="none" xmlns="http://www.w3.org/2000/svg">
<path d="M19.4067 42.6402C18.5907 42.5694 17.7746 42.466 16.9993 42.33V47.6651C17 48.5529 17.3531 49.404 17.981 50.0315C18.609 50.659 19.4603 51.0115 20.348 51.0115H30.6525C31.0919 51.0115 31.527 50.9249 31.933 50.7568C32.3389 50.5886 32.7078 50.3421 33.0185 50.0314C33.3292 49.7206 33.5757 49.3517 33.7438 48.9457C33.912 48.5397 33.9985 48.1046 33.9985 47.6651V43.0646C29.374 43.4917 24.102 43.1272 19.4067 42.6456" fill="#FAC26F"/>
<path d="M30.6852 7.84353C31.801 7.85145 32.9124 7.98468 33.9985 8.24074V3.34363C33.9985 2.90431 33.912 2.4693 33.7438 2.06345C33.5756 1.65761 33.3291 1.28889 33.0183 0.978367C32.7076 0.667846 32.3387 0.421613 31.9328 0.253739C31.5268 0.0858662 31.0918 -0.000356355 30.6525 1.10693e-06H20.3453C19.4583 8.13774e-07 18.6077 0.352189 17.9802 0.979164C17.3528 1.60614 17 2.4566 16.9993 3.34363V8.18088C21.2266 7.54426 26.5476 7.84353 30.6852 7.84353Z" fill="#FAC26F"/>
<path d="M7.90796 17.4446C7.92428 17.2977 7.9406 17.1535 7.95421 17.0093H3.34871C2.46105 17.0093 1.6097 17.3618 0.981775 17.9892C0.353848 18.6167 0.00072109 19.4679 0 20.3556V30.664C0.00072109 31.5518 0.353848 32.4029 0.981775 33.0304C1.6097 33.6579 2.46105 34.0104 3.34871 34.0104H8.0195C8.00589 33.8716 7.98957 33.7383 7.97869 33.586C7.43463 25.8431 7.53528 21.4629 7.90796 17.4446" fill="#FAC26F"/>
<path d="M47.6654 17.0093H43.2149C43.5523 20.9514 43.3265 27.6197 43.3428 30.2967C43.3499 31.541 43.2489 32.7836 43.0408 34.0104H47.6654C48.5523 34.0097 49.4027 33.6568 50.0296 33.0293C50.6565 32.4018 51.0086 31.5511 51.0086 30.664V20.3556C51.0086 19.4686 50.6565 18.6178 50.0296 17.9904C49.4027 17.3629 48.5523 17.01 47.6654 17.0093" fill="#FAC26F"/>
<path d="M13.6614 17.0093C14.5488 17.0093 15.3999 16.6567 16.0274 16.0291C16.6549 15.4016 17.0074 14.5504 17.0074 13.6629V8.18088C16.6483 8.23529 16.2947 8.29242 15.9519 8.36316C10.7398 9.4514 8.53905 11.9435 7.96234 17.0093H13.675H13.6614Z" fill="#F18925"/>
<path d="M33.9985 13.6629C33.9992 14.5498 34.3516 15.4001 34.9784 16.0274C35.6051 16.6547 36.4551 17.0078 37.3418 17.0093H43.2149C43.1116 15.7959 42.9429 14.8328 42.7198 14.3376C41.3134 11.1464 37.5349 9.0787 33.9985 8.24075V13.6521V13.6629Z" fill="#F18925"/>
<path d="M37.3418 34.0104C36.4562 34.0125 35.6075 34.3651 34.9811 34.9911C34.3546 35.6171 34.0014 36.4656 33.9985 37.3513V43.0646L34.4909 43.0183C39.7329 42.5259 42.2465 38.6409 43.0463 34.0158H37.3336L37.3418 34.0104Z" fill="#F18925"/>
<path d="M16.9993 37.3513C16.9993 36.9118 16.9127 36.4767 16.7446 36.0707C16.5764 35.6647 16.33 35.2958 16.0192 34.9851C15.7085 34.6743 15.3397 34.4278 14.9337 34.2597C14.5278 34.0915 14.0927 34.0049 13.6533 34.0049H8.0195C8.60165 39.4788 12.4727 41.5329 16.9965 42.3246V37.3513H16.9993Z" fill="#F18925"/>
<path d="M34.1318 27.5571C34.1481 30.5226 33.0437 33.4499 29.8174 33.7547C27.5106 33.9995 24.8365 33.8145 22.4725 33.5724C19.7522 33.3275 17.1462 32.4651 16.9068 29.1623C16.6347 25.3888 16.6919 23.2531 16.8741 21.2997C17.1135 18.6852 18.1772 17.4174 20.7859 16.8705C22.9132 16.4461 25.7804 16.6202 27.9703 16.6202C29.9752 16.6202 32.9213 17.7085 33.8326 19.7843C34.3195 20.8154 34.1264 25.854 34.1373 27.5571H34.1318ZM43.2204 17.0202H37.3418C36.4551 17.0187 35.6051 16.6656 34.9784 16.0383C34.3516 15.411 33.9992 14.5606 33.9985 13.6738V8.24076C32.9128 7.98104 31.8014 7.84415 30.6852 7.83266C26.5476 7.83266 21.2266 7.5334 16.9993 8.17002V13.6521C16.9993 14.0915 16.9127 14.5267 16.7446 14.9326C16.5764 15.3386 16.3299 15.7075 16.0192 16.0183C15.7085 16.329 15.3397 16.5755 14.9337 16.7437C14.5278 16.9118 14.0927 16.9984 13.6533 16.9984H7.94876C7.94876 17.1426 7.91884 17.2868 7.90252 17.4337C7.53256 21.4493 7.4183 25.8322 7.97325 33.5751C7.97325 33.722 8.00045 33.8608 8.01405 33.9995H13.6614C14.5488 33.9995 15.3999 34.3521 16.0274 34.9796C16.6549 35.6072 17.0074 36.4584 17.0074 37.3459V42.33C17.7963 42.4661 18.6015 42.5694 19.4149 42.6402C24.1102 43.1217 29.3821 43.4863 34.0067 43.0592V37.3513C34.0074 36.4642 34.3597 35.6136 34.9864 34.9859C35.613 34.3581 36.463 34.0044 37.3499 34.0022H43.0626C43.2688 32.7753 43.3681 31.5327 43.3591 30.2886C43.3428 27.617 43.5686 20.9433 43.2313 17.0011" fill="#E7443E"/>
<path d="M33.8271 19.7734C32.9158 17.7058 29.967 16.6093 27.9648 16.6093C25.775 16.6093 22.9078 16.4352 20.7805 16.8596C18.169 17.4038 17.1108 18.6743 16.8687 21.2888C16.6864 23.2422 16.632 25.3697 16.9013 29.1514C17.1407 32.4542 19.7359 33.3166 22.4671 33.5615C24.8365 33.8036 27.5105 33.9886 29.8119 33.7438C33.0301 33.4391 34.1427 30.5117 34.1264 27.5489C34.1264 25.8431 34.3086 20.8045 33.8217 19.7734" fill="#B31829"/>
</svg>
